<svg width="998" height="143" viewBox="0 0 998 143" xmlns="http://www.w3.org/2000/svg"><title>Sin Corazon Tattoos</title><path d="M64.497 5.616c-2.592-.576-5.232-.336-7.92.72-2.688 1.056-5.112 2.736-7.272 5.04s-3.984 5.112-5.472 8.424c-1.488 3.312-2.328 6.936-2.52 10.872-.192 3.936.36 8.064 1.656 12.384 1.296 4.32 3.624 8.64 6.984 12.96 3.744 4.896 6.144 9.984 7.2 15.264 1.056 5.28 1.104 10.464.144 15.552a42.27 42.27 0 0 1-5.472 14.256c-2.688 4.416-5.904 8.184-9.648 11.304-3.744 3.12-7.8 5.4-12.168 6.84-4.368 1.44-8.712 1.68-13.032.72-4.512-.96-8.064-2.784-10.656-5.472-2.592-2.688-4.368-5.808-5.328-9.36-.96-3.552-1.224-7.344-.792-11.376a46.936 46.936 0 0 1 2.736-11.592C4.33 78.456 6.153 75.072 8.41 72c2.256-3.072 4.704-5.376 7.344-6.912 2.64-1.536 5.4-2.16 8.28-1.872 2.88.288 5.664 1.92 8.352 4.896-1.44-.384-3.192.456-5.256 2.52s-4.08 4.752-6.048 8.064c-1.968 3.312-3.744 6.984-5.328 11.016s-2.664 7.872-3.24 11.52c-.576 3.648-.48 6.816.288 9.504.768 2.688 2.592 4.368 5.472 5.04 2.112.48 4.584.312 7.416-.504 2.832-.816 5.592-2.184 8.28-4.104 2.688-1.92 5.088-4.368 7.2-7.344s3.528-6.384 4.248-10.224c.72-3.84.504-8.088-.648-12.744-1.152-4.656-3.648-9.624-7.488-14.904-4.416-6.048-7.272-11.928-8.568-17.64-1.296-5.712-1.464-11.064-.504-16.056.96-4.992 2.784-9.528 5.472-13.608 2.688-4.08 5.784-7.488 9.288-10.224 3.504-2.736 7.2-4.704 11.088-5.904 3.888-1.2 7.512-1.464 10.872-.792 3.552.768 6.192 1.968 7.92 3.6 1.728 1.632 2.832 3.504 3.312 5.616 2.784-3.84 5.856-6.624 9.216-8.352 3.36-1.728 7.2-1.536 11.52.576-1.152 0-2.496 1.272-4.032 3.816-1.536 2.544-3.288 5.688-5.256 9.432a308.448 308.448 0 0 1-6.696 12.024c-2.496 4.272-5.28 8.184-8.352 11.736-3.072 3.552-6.432 6.384-10.08 8.496-3.648 2.112-7.632 2.88-11.952 2.304 2.016-.096 3.912-1.296 5.688-3.6 1.776-2.304 3.528-5.16 5.256-8.568a309.246 309.246 0 0 0 5.328-11.088 119.136 119.136 0 0 1 5.904-11.304c0-2.592-.6-4.872-1.8-6.84-1.2-1.968-3.336-3.288-6.408-3.96zm17.136 41.616c3.648 0 6.672.36 9.072 1.08 2.4.72 4.32 1.512 5.76 2.376 1.728 1.056 3.024 2.208 3.888 3.456C92.481 65.376 85.81 75.408 80.337 84.24a481.024 481.024 0 0 0-6.624 11.088c-2.112 3.648-3.816 6.864-5.112 9.648-1.296 2.784-2.088 5.04-2.376 6.768-.288 1.728.144 2.592 1.296 2.592 2.016 0 4.368-.936 7.056-2.808 2.688-1.872 5.376-4.224 8.064-7.056a93.096 93.096 0 0 0 7.704-9.288c2.448-3.36 4.416-6.528 5.904-9.504 1.488-2.976 2.328-5.568 2.52-7.776.192-2.208-.576-3.552-2.304-4.032h14.976c-5.184 8.736-10.56 16.464-16.128 23.184-2.4 2.88-4.944 5.712-7.632 8.496-2.688 2.784-5.472 5.256-8.352 7.416s-5.808 3.888-8.784 5.184c-2.976 1.296-5.904 1.944-8.784 1.944-3.168 0-5.112-1.032-5.832-3.096-.72-2.064-.624-4.824.288-8.28.912-3.456 2.424-7.368 4.536-11.736a273.435 273.435 0 0 1 6.912-13.32c2.496-4.512 4.968-8.952 7.416-13.32 2.448-4.368 4.464-8.28 6.048-11.736 1.584-3.456 2.52-6.216 2.808-8.28.288-2.064-.48-3.096-2.304-3.096zm27.36-9.936c-1.92 0-3.336-.576-4.248-1.728-.912-1.152-1.416-2.664-1.512-4.536-.096-1.872.24-4.008 1.008-6.408.768-2.4 1.92-4.848 3.456-7.344 3.264-.672 6.096-.816 8.496-.432 2.4.384 3.912 1.368 4.536 2.952.624 1.584.072 3.816-1.656 6.696s-5.088 6.48-10.08 10.8zm4.32 9.072c3.648 0 6.672.36 9.072 1.08 2.4.72 4.32 1.512 5.76 2.376 1.728 1.056 3.024 2.208 3.888 3.456a350.127 350.127 0 0 0-5.688 8.352 2966.983 2966.983 0 0 1-6.12 9.216 159.19 159.19 0 0 1 7.992-9.576c2.736-3.024 5.424-5.64 8.064-7.848 2.64-2.208 5.184-3.96 7.632-5.256 2.448-1.296 4.68-1.896 6.696-1.8 1.728.096 3.288.456 4.68 1.08 1.392.624 2.592 1.344 3.6 2.16 1.008.816 1.824 1.704 2.448 2.664.624.96 1.08 1.824 1.368 2.592-.96 0-2.736 1.488-5.328 4.464-2.592 2.976-5.496 6.72-8.712 11.232-3.216 4.512-6.48 9.384-9.792 14.616-3.312 5.232-6.144 10.104-8.496 14.616-2.352 4.512-3.936 8.256-4.752 11.232-.816 2.976-.36 4.464 1.368 4.464 1.728 0 3.792-.936 6.192-2.808 2.4-1.872 4.824-4.248 7.272-7.128 2.448-2.88 4.752-6.048 6.912-9.504 2.16-3.456 3.888-6.72 5.184-9.792 1.296-3.072 1.992-5.76 2.088-8.064.096-2.304-.72-3.744-2.448-4.32h14.976c-4.704 8.736-9.504 16.464-14.4 23.184a157.376 157.376 0 0 1-6.696 8.496c-2.352 2.784-4.752 5.256-7.2 7.416-2.448 2.16-4.944 3.888-7.488 5.184-2.544 1.296-5.016 1.944-7.416 1.944-3.936 0-6.648-.96-8.136-2.88-1.488-1.92-2.112-4.464-1.872-7.632.24-3.168 1.2-6.792 2.88-10.872s3.672-8.232 5.976-12.456c5.472-9.984 13.008-21.312 22.608-33.984-1.632 0-4.08 1.392-7.344 4.176-3.264 2.784-6.912 6.384-10.944 10.8-4.032 4.416-8.184 9.36-12.456 14.832-4.272 5.472-8.136 10.896-11.592 16.272a285.563 285.563 0 0 0-4.68 8.64c-1.392 2.688-2.448 4.992-3.168 6.912-.72 1.92-1.08 3.432-1.08 4.536 0 1.104.432 1.656 1.296 1.656-3.648 0-6.024-.96-7.128-2.88s-1.368-4.464-.792-7.632c.576-3.168 1.776-6.792 3.6-10.872s3.912-8.304 6.264-12.672a885.694 885.694 0 0 1 7.2-13.104c2.448-4.368 4.512-8.352 6.192-11.952 1.68-3.6 2.832-6.696 3.456-9.288.624-2.592.312-4.368-.936-5.328zm129.6 27.216c1.632-.096 3.384-1.272 5.256-3.528 1.872-2.256 3.864-5.184 5.976-8.784 2.112-3.6 4.296-7.656 6.552-12.168a929.491 929.491 0 0 1 6.984-13.68 254.71 254.71 0 0 1 7.488-13.392c2.592-4.32 5.28-8.064 8.064-11.232-2.784-2.016-6.216-2.064-10.296-.144-4.08 1.92-8.4 5.16-12.96 9.72-4.56 4.56-9.192 10.056-13.896 16.488a191.878 191.878 0 0 0-12.96 20.304c-3.936 7.104-7.32 14.136-10.152 21.096-2.832 6.96-4.68 13.224-5.544 18.792-.864 5.568-.552 10.08.936 13.536 1.488 3.456 4.584 5.184 9.288 5.184 2.976 0 6.168-.984 9.576-2.952 3.408-1.968 6.768-4.416 10.08-7.344a77.045 77.045 0 0 0 9.216-9.72c2.832-3.552 5.088-6.888 6.768-10.008 1.68-3.12 2.688-5.808 3.024-8.064.336-2.256-.36-3.624-2.088-4.104h14.976c-5.28 8.736-10.896 16.464-16.848 23.184a152.54 152.54 0 0 1-8.28 8.496 72.773 72.773 0 0 1-9.144 7.416c-3.168 2.16-6.456 3.912-9.864 5.256-3.408 1.344-6.84 2.016-10.296 2.016-5.568 0-9.816-1.416-12.744-4.248-2.928-2.832-4.776-6.624-5.544-11.376-.768-4.752-.624-10.224.432-16.416s2.808-12.648 5.256-19.368c2.448-6.72 5.472-13.44 9.072-20.16 3.6-6.72 7.536-13.008 11.808-18.864 4.272-5.856 8.736-11.04 13.392-15.552 4.656-4.512 9.288-7.848 13.896-10.008 4.608-2.16 9.048-2.976 13.32-2.448s8.136 2.904 11.592 7.128c2.784-2.88 5.64-4.872 8.568-5.976s5.928-.936 9 .504c-1.152 0-2.808 1.824-4.968 5.472-2.16 3.648-4.752 8.184-7.776 13.608a990.825 990.825 0 0 1-10.008 17.496c-3.648 6.24-7.488 11.976-11.52 17.208-4.032 5.232-8.232 9.456-12.6 12.672-4.368 3.216-8.712 4.536-13.032 3.96zm62.784 27.936c-2.112 0-3.84-.384-5.184-1.152a110.39 110.39 0 0 1-7.992 7.776c-2.736 2.4-5.472 4.488-8.208 6.264-2.736 1.776-5.424 3.168-8.064 4.176-2.64 1.008-5.112 1.512-7.416 1.512-3.648 0-6.168-1.272-7.56-3.816-1.392-2.544-1.92-5.856-1.584-9.936.336-4.08 1.416-8.664 3.24-13.752 1.824-5.088 4.104-10.152 6.84-15.192a109.196 109.196 0 0 1 9.288-14.328c3.456-4.512 6.984-8.208 10.584-11.088 3.6-2.88 7.128-4.728 10.584-5.544 3.456-.816 6.624-.072 9.504 2.232 4.224-.864 7.488-.84 9.792.072 2.304.912 3.792 2.496 4.464 4.752.672 2.256.624 5.04-.144 8.352-.768 3.312-2.064 6.864-3.888 10.656-1.824 3.792-4.104 7.728-6.84 11.808a131.773 131.773 0 0 1-8.856 11.736c.384 1.152 1.488 1.728 3.312 1.728 2.112 0 4.344-1.008 6.696-3.024a30.558 30.558 0 0 0 6.048-7.056c1.68-2.688 2.712-5.352 3.096-7.992.384-2.64-.384-4.584-2.304-5.832h14.976c-2.88 5.184-5.952 9.792-9.216 13.824a90.373 90.373 0 0 1-4.608 5.112 40.049 40.049 0 0 1-5.112 4.464 25.395 25.395 0 0 1-5.544 3.096 15.764 15.764 0 0 1-5.904 1.152zm-6.048-25.488a48.198 48.198 0 0 1 2.88-7.632 90.654 90.654 0 0 1 3.456-6.552c1.152-1.968 2.256-3.672 3.312-5.112a411.61 411.61 0 0 1 2.448-3.312c-1.728 0-3.792.864-6.192 2.592-2.4 1.728-4.92 4.056-7.56 6.984-2.64 2.928-5.352 6.24-8.136 9.936a165.186 165.186 0 0 0-7.848 11.376c-2.448 3.888-4.632 7.68-6.552 11.376-1.92 3.696-3.384 7.008-4.392 9.936-1.008 2.928-1.44 5.28-1.296 7.056.144 1.776 1.032 2.664 2.664 2.664 2.016 0 4.08-.552 6.192-1.656 2.112-1.104 4.224-2.592 6.336-4.464 2.112-1.872 4.152-4.104 6.12-6.696a117.748 117.748 0 0 0 5.688-8.208c-.384-1.92-.456-3.936-.216-6.048.24-2.112.6-4.08 1.08-5.904a40.333 40.333 0 0 1 2.016-6.336zm22.176 33.984c-1.44 3.072-2.328 5.52-2.664 7.344-.336 1.824.072 2.736 1.224 2.736-3.552 0-5.88-.96-6.984-2.88s-1.392-4.464-.864-7.632c.528-3.168 1.728-6.792 3.6-10.872a222.553 222.553 0 0 1 6.336-12.672 1759.13 1759.13 0 0 1 7.128-13.104c2.4-4.368 4.464-8.352 6.192-11.952 1.728-3.6 2.88-6.696 3.456-9.288.576-2.592.24-4.368-1.008-5.328 3.648 0 6.672.36 9.072 1.08 2.4.72 4.32 1.512 5.76 2.376 1.728 1.056 3.072 2.208 4.032 3.456a704.804 704.804 0 0 0-6.192 9.144l-6.768 10.152a566.265 566.265 0 0 0-6.84 10.512 479.651 479.651 0 0 0-6.408 10.368c3.072-3.648 6.168-6.96 9.288-9.936s6.072-5.568 8.856-7.776c.96-2.496 2.16-5.088 3.6-7.776a65.135 65.135 0 0 1 4.968-7.848 63.537 63.537 0 0 1 6.264-7.272 47.811 47.811 0 0 1 7.632-6.192h13.68c-.576 2.112-1.92 4.584-4.032 7.416-2.112 2.832-4.632 5.688-7.56 8.568s-6.12 5.64-9.576 8.28c-3.456 2.64-6.768 4.776-9.936 6.408 0 .096-.024.144-.072.144-.048 0-.072.048-.072.144-.48.672-.96 1.848-1.44 3.528a23.408 23.408 0 0 0-.864 5.184c-.096 1.776.072 3.36.504 4.752s1.368 2.088 2.808 2.088c2.112 0 4.464-.768 7.056-2.304 2.592-1.536 4.824-3.36 6.696-5.472 1.872-2.112 3.096-4.248 3.672-6.408.576-2.16-.096-3.864-2.016-5.112h14.976c-3.072 4.32-6.336 8.112-9.792 11.376-2.976 2.88-6.36 5.496-10.152 7.848-3.792 2.352-7.704 3.528-11.736 3.528-3.072 0-5.112-1.32-6.12-3.96-1.008-2.64-1.128-5.976-.36-10.008a132.546 132.546 0 0 0-6.84 5.76 129.11 129.11 0 0 0-6.912 6.696 113.81 113.81 0 0 0-6.408 7.272c-2.016 2.496-3.744 5.04-5.184 7.632zm97.776-62.784c3.648 0 6.672.36 9.072 1.08 2.4.72 4.32 1.512 5.76 2.376 1.728 1.056 3.024 2.208 3.888 3.456-7.872 11.232-14.544 21.264-20.016 30.096a481.028 481.028 0 0 0-6.624 11.088c-2.112 3.648-3.816 6.864-5.112 9.648-1.296 2.784-2.088 5.04-2.376 6.768-.288 1.728.144 2.592 1.296 2.592 2.016 0 4.272-.936 6.768-2.808 2.496-1.872 4.968-4.224 7.416-7.056a76.082 76.082 0 0 0 6.84-9.288c2.112-3.36 3.768-6.528 4.968-9.504 1.2-2.976 1.8-5.568 1.8-7.776s-.864-3.552-2.592-4.032h14.976c-4.416 8.736-9.168 16.464-14.256 23.184a163.7 163.7 0 0 1-6.984 8.496c-2.448 2.784-5.04 5.256-7.776 7.416-2.736 2.16-5.544 3.888-8.424 5.184-2.88 1.296-5.76 1.944-8.64 1.944-3.36 0-5.328-1.176-5.904-3.528-.576-2.352-.288-5.448.864-9.288-3.36 3.744-6.816 6.816-10.368 9.216-3.552 2.4-7.104 3.6-10.656 3.6-3.168 0-5.28-1.392-6.336-4.176-1.056-2.784-1.32-6.36-.792-10.728.528-4.368 1.728-9.264 3.6-14.688 1.872-5.424 4.2-10.776 6.984-16.056 2.784-5.28 5.928-10.2 9.432-14.76 3.504-4.56 7.08-8.184 10.728-10.872 3.648-2.688 7.272-4.104 10.872-4.248 3.6-.144 6.936 1.512 10.008 4.968 1.248 1.536 2.016 3.6 2.304 6.192 1.056-2.592 1.584-4.656 1.584-6.192 0-1.536-.768-2.304-2.304-2.304zm-41.472 67.824c2.016 0 4.368-1.224 7.056-3.672 2.688-2.448 5.376-5.52 8.064-9.216 2.688-3.696 5.232-7.728 7.632-12.096 2.4-4.368 4.32-8.472 5.76-12.312 1.44-3.84 2.256-7.152 2.448-9.936.192-2.784-.576-4.416-2.304-4.896h9.072c.48-1.92.648-3.576.504-4.968-.144-1.392-.648-2.328-1.512-2.808-2.304-1.152-5.088-.48-8.352 2.016-3.264 2.496-6.576 5.976-9.936 10.44-3.36 4.464-6.6 9.432-9.72 14.904-3.12 5.472-5.64 10.632-7.56 15.48-1.92 4.848-3.096 8.904-3.528 12.168-.432 3.264.36 4.896 2.376 4.896zm58.032 23.76c-3.36 1.728-6.84 2.784-10.44 3.168-3.6.384-7.368-.24-11.304-1.872 3.072.672 6.192.36 9.36-.936 3.168-1.296 6.144-3.096 8.928-5.4a41.27 41.27 0 0 0 7.272-7.776c2.064-2.88 3.576-5.616 4.536-8.208.96-2.592 1.2-4.824.72-6.696-.48-1.872-1.92-2.952-4.32-3.24a39.125 39.125 0 0 1-4.104.936c-1.392.24-2.904.456-4.536.648l3.312-1.44a30.85 30.85 0 0 0 7.776-5.904c2.304-2.4 4.464-5.064 6.48-7.992a154.545 154.545 0 0 0 5.904-9.288c1.92-3.264 3.96-6.504 6.12-9.72a101.373 101.373 0 0 1 6.912-9.144 46.265 46.265 0 0 1 8.28-7.632c1.344.384 2.928.408 4.752.072a91.575 91.575 0 0 0 5.616-1.224c-1.632.096-3.072-.096-4.32-.576a62.322 62.322 0 0 1-3.744-1.584 91.361 91.361 0 0 0-3.816-1.656c-1.296-.528-2.856-.792-4.68-.792-1.632 0-3.432.912-5.4 2.736-1.968 1.824-3.984 4.104-6.048 6.84-2.064 2.736-4.056 5.76-5.976 9.072-1.92 3.312-3.528 6.456-4.824 9.432-1.296 2.976-2.256 5.592-2.88 7.848-.624 2.256-.648 3.72-.072 4.392-3.744.384-6.336-.48-7.776-2.592-1.44-2.112-1.992-4.872-1.656-8.28.336-3.408 1.464-7.128 3.384-11.16s4.368-7.8 7.344-11.304a41.857 41.857 0 0 1 10.296-8.784c3.888-2.352 7.992-3.528 12.312-3.528 2.976 0 5.544.504 7.704 1.512a56.214 56.214 0 0 1 5.904 3.168 46.399 46.399 0 0 0 5.184 2.808c1.68.768 3.528.864 5.544.288.768-.288 1.416-.528 1.944-.72.528-.192.888-.384 1.08-.576l-.864.432.864-.432c.096 0 .192-.048.288-.144-.096.096-.192.144-.288.144.096 0 .192-.048.288-.144-3.648 2.016-6.816 4.344-9.504 6.984a68.553 68.553 0 0 0-7.344 8.496 138.125 138.125 0 0 0-6.264 9.36 184.826 184.826 0 0 1-6.12 9.36 70.412 70.412 0 0 1-7.056 8.568c-2.592 2.688-5.568 5.04-8.928 7.056 2.4-.288 4.488-.408 6.264-.36 1.776.048 3.288.168 4.536.36 1.44.288 2.64.576 3.6.864-.672 1.536-1.536 3.168-2.592 4.896a168.57 168.57 0 0 1-3.168 5.04 96.982 96.982 0 0 1-4.176 5.904c2.88-2.88 5.736-6.024 8.568-9.432a237.47 237.47 0 0 0 7.992-10.152c2.496-3.36 4.728-6.624 6.696-9.792s3.576-5.976 4.824-8.424c1.248-2.448 1.992-4.44 2.232-5.976.24-1.536-.12-2.352-1.08-2.448h14.976c-1.056 1.536-2.928 4.032-5.616 7.488-2.688 3.456-5.88 7.416-9.576 11.88-3.696 4.464-7.752 9.12-12.168 13.968a304.08 304.08 0 0 1-13.32 13.752c-4.464 4.32-8.76 8.112-12.888 11.376-4.128 3.264-7.776 5.472-10.944 6.624v-.144zm90.144-37.296c-2.112 0-3.84-.384-5.184-1.152a110.39 110.39 0 0 1-7.992 7.776c-2.736 2.4-5.472 4.488-8.208 6.264-2.736 1.776-5.424 3.168-8.064 4.176-2.64 1.008-5.112 1.512-7.416 1.512-3.648 0-6.168-1.272-7.56-3.816-1.392-2.544-1.92-5.856-1.584-9.936.336-4.08 1.416-8.664 3.24-13.752 1.824-5.088 4.104-10.152 6.84-15.192a109.196 109.196 0 0 1 9.288-14.328c3.456-4.512 6.984-8.208 10.584-11.088 3.6-2.88 7.128-4.728 10.584-5.544 3.456-.816 6.624-.072 9.504 2.232 4.224-.864 7.488-.84 9.792.072 2.304.912 3.792 2.496 4.464 4.752.672 2.256.624 5.04-.144 8.352-.768 3.312-2.064 6.864-3.888 10.656-1.824 3.792-4.104 7.728-6.84 11.808a131.773 131.773 0 0 1-8.856 11.736c.384 1.152 1.488 1.728 3.312 1.728 2.112 0 4.344-1.008 6.696-3.024a30.558 30.558 0 0 0 6.048-7.056c1.68-2.688 2.712-5.352 3.096-7.992.384-2.64-.384-4.584-2.304-5.832h14.976c-2.88 5.184-5.952 9.792-9.216 13.824a90.373 90.373 0 0 1-4.608 5.112 40.049 40.049 0 0 1-5.112 4.464 25.395 25.395 0 0 1-5.544 3.096 15.764 15.764 0 0 1-5.904 1.152zm-6.048-25.488a48.198 48.198 0 0 1 2.88-7.632 90.654 90.654 0 0 1 3.456-6.552c1.152-1.968 2.256-3.672 3.312-5.112a411.61 411.61 0 0 1 2.448-3.312c-1.728 0-3.792.864-6.192 2.592-2.4 1.728-4.92 4.056-7.56 6.984-2.64 2.928-5.352 6.24-8.136 9.936a165.186 165.186 0 0 0-7.848 11.376c-2.448 3.888-4.632 7.68-6.552 11.376-1.92 3.696-3.384 7.008-4.392 9.936-1.008 2.928-1.44 5.28-1.296 7.056.144 1.776 1.032 2.664 2.664 2.664 2.016 0 4.08-.552 6.192-1.656 2.112-1.104 4.224-2.592 6.336-4.464 2.112-1.872 4.152-4.104 6.12-6.696a117.748 117.748 0 0 0 5.688-8.208c-.384-1.92-.456-3.936-.216-6.048.24-2.112.6-4.08 1.08-5.904a40.333 40.333 0 0 1 2.016-6.336zm38.592-29.664c3.648 0 6.672.36 9.072 1.08 2.4.72 4.32 1.512 5.76 2.376 1.728 1.056 3.024 2.208 3.888 3.456a350.127 350.127 0 0 0-5.688 8.352 2966.983 2966.983 0 0 1-6.12 9.216 159.19 159.19 0 0 1 7.992-9.576c2.736-3.024 5.424-5.64 8.064-7.848 2.64-2.208 5.184-3.96 7.632-5.256 2.448-1.296 4.68-1.896 6.696-1.8 1.728.096 3.288.456 4.68 1.08 1.392.624 2.592 1.344 3.6 2.16 1.008.816 1.824 1.704 2.448 2.664.624.96 1.08 1.824 1.368 2.592-.96 0-2.736 1.488-5.328 4.464-2.592 2.976-5.496 6.72-8.712 11.232-3.216 4.512-6.48 9.384-9.792 14.616-3.312 5.232-6.144 10.104-8.496 14.616-2.352 4.512-3.936 8.256-4.752 11.232-.816 2.976-.36 4.464 1.368 4.464 1.728 0 3.792-.936 6.192-2.808 2.4-1.872 4.824-4.248 7.272-7.128 2.448-2.88 4.752-6.048 6.912-9.504 2.16-3.456 3.888-6.72 5.184-9.792 1.296-3.072 1.992-5.76 2.088-8.064.096-2.304-.72-3.744-2.448-4.32h14.976c-4.704 8.736-9.504 16.464-14.4 23.184a157.376 157.376 0 0 1-6.696 8.496c-2.352 2.784-4.752 5.256-7.2 7.416-2.448 2.16-4.944 3.888-7.488 5.184-2.544 1.296-5.016 1.944-7.416 1.944-3.936 0-6.648-.96-8.136-2.88-1.488-1.92-2.112-4.464-1.872-7.632.24-3.168 1.2-6.792 2.88-10.872s3.672-8.232 5.976-12.456c5.472-9.984 13.008-21.312 22.608-33.984-1.632 0-4.08 1.392-7.344 4.176-3.264 2.784-6.912 6.384-10.944 10.8-4.032 4.416-8.184 9.36-12.456 14.832-4.272 5.472-8.136 10.896-11.592 16.272a285.563 285.563 0 0 0-4.68 8.64c-1.392 2.688-2.448 4.992-3.168 6.912-.72 1.92-1.08 3.432-1.08 4.536 0 1.104.432 1.656 1.296 1.656-3.648 0-6.024-.96-7.128-2.88s-1.368-4.464-.792-7.632c.576-3.168 1.776-6.792 3.6-10.872s3.912-8.304 6.264-12.672a885.697 885.697 0 0 1 7.2-13.104c2.448-4.368 4.512-8.352 6.192-11.952 1.68-3.6 2.832-6.696 3.456-9.288.624-2.592.312-4.368-.936-5.328zM775.425 0c-.768 4.608-2.208 8.376-4.32 11.304-2.112 2.928-4.752 5.208-7.92 6.84-3.168 1.632-6.768 2.712-10.8 3.24-4.032.528-8.28.72-12.744.576a141.193 141.193 0 0 1-13.824-1.152 458.46 458.46 0 0 1-14.184-2.088c2.016.768 3.6 1.728 4.752 2.88 1.152 1.152 2.064 2.256 2.736 3.312a14.415 14.415 0 0 1 1.44 4.032 1593.96 1593.96 0 0 1-7.344 10.728c-2.88 4.176-5.928 8.664-9.144 13.464-3.216 4.8-6.528 9.792-9.936 14.976a971.638 971.638 0 0 0-9.792 15.192c-3.12 4.944-6 9.624-8.64 14.04-2.64 4.416-4.824 8.304-6.552 11.664-1.728 3.36-2.88 6.024-3.456 7.992-.576 1.968-.384 2.952.576 2.952-3.552 0-5.592-1.368-6.12-4.104-.528-2.736-.024-6.36 1.512-10.872s3.84-9.672 6.912-15.48a417.788 417.788 0 0 1 10.08-17.928c3.648-6.144 7.296-12.24 10.944-18.288 3.648-6.048 6.816-11.544 9.504-16.488 2.688-4.944 4.608-9.12 5.76-12.528 1.152-3.408 1.104-5.592-.144-6.552h.144a293.88 293.88 0 0 0-14.256-1.584c-4.512-.384-8.544-.336-12.096.144-3.552.48-6.504 1.512-8.856 3.096-2.352 1.584-3.816 4.008-4.392 7.272.384-4.512 2.16-8.088 5.328-10.728 3.168-2.64 7.224-4.656 12.168-6.048 4.944-1.392 10.512-2.28 16.704-2.664a275.57 275.57 0 0 1 19.08-.504c6.528.048 12.96.144 19.296.288 6.336.144 12.12.096 17.352-.144 5.232-.24 9.648-.864 13.248-1.872 3.6-1.008 5.928-2.664 6.984-4.968zm-22.608 47.232c3.648 0 6.672.36 9.072 1.08 2.4.72 4.32 1.512 5.76 2.376 1.728 1.056 3.024 2.208 3.888 3.456-7.872 11.232-14.544 21.264-20.016 30.096a481.028 481.028 0 0 0-6.624 11.088c-2.112 3.648-3.816 6.864-5.112 9.648-1.296 2.784-2.088 5.04-2.376 6.768-.288 1.728.144 2.592 1.296 2.592 2.016 0 4.272-.936 6.768-2.808 2.496-1.872 4.968-4.224 7.416-7.056a76.082 76.082 0 0 0 6.84-9.288c2.112-3.36 3.768-6.528 4.968-9.504 1.2-2.976 1.8-5.568 1.8-7.776s-.864-3.552-2.592-4.032h14.976c-4.416 8.736-9.168 16.464-14.256 23.184a163.7 163.7 0 0 1-6.984 8.496c-2.448 2.784-5.04 5.256-7.776 7.416-2.736 2.16-5.544 3.888-8.424 5.184-2.88 1.296-5.76 1.944-8.64 1.944-3.36 0-5.328-1.176-5.904-3.528-.576-2.352-.288-5.448.864-9.288-3.36 3.744-6.816 6.816-10.368 9.216-3.552 2.4-7.104 3.6-10.656 3.6-3.168 0-5.28-1.392-6.336-4.176-1.056-2.784-1.32-6.36-.792-10.728.528-4.368 1.728-9.264 3.6-14.688 1.872-5.424 4.2-10.776 6.984-16.056 2.784-5.28 5.928-10.2 9.432-14.76 3.504-4.56 7.08-8.184 10.728-10.872 3.648-2.688 7.272-4.104 10.872-4.248 3.6-.144 6.936 1.512 10.008 4.968 1.248 1.536 2.016 3.6 2.304 6.192 1.056-2.592 1.584-4.656 1.584-6.192 0-1.536-.768-2.304-2.304-2.304zm-41.472 67.824c2.016 0 4.368-1.224 7.056-3.672 2.688-2.448 5.376-5.52 8.064-9.216 2.688-3.696 5.232-7.728 7.632-12.096 2.4-4.368 4.32-8.472 5.76-12.312 1.44-3.84 2.256-7.152 2.448-9.936.192-2.784-.576-4.416-2.304-4.896h9.072c.48-1.92.648-3.576.504-4.968-.144-1.392-.648-2.328-1.512-2.808-2.304-1.152-5.088-.48-8.352 2.016-3.264 2.496-6.576 5.976-9.936 10.44-3.36 4.464-6.6 9.432-9.72 14.904-3.12 5.472-5.64 10.632-7.56 15.48-1.92 4.848-3.096 8.904-3.528 12.168-.432 3.264.36 4.896 2.376 4.896zM832.305 8.64c-2.496 1.92-5.448 4.968-8.856 9.144-3.408 4.176-7.08 9-11.016 14.472 2.112-.192 4.248-.336 6.408-.432a6801.6 6801.6 0 0 1 6.552-.288c1.92-3.648 3.384-6.6 4.392-8.856 1.008-2.256 1.272-3.624.792-4.104 1.728-1.152 3.864-2.304 6.408-3.456a97.22 97.22 0 0 1 7.92-3.168 75.466 75.466 0 0 1 8.208-2.376c2.736-.624 5.208-.936 7.416-.936-2.4 1.92-5.232 4.824-8.496 8.712-3.264 3.888-6.72 8.376-10.368 13.464 6.336-.288 11.784-.696 16.344-1.224 4.56-.528 7.416-1.464 8.568-2.808-1.632 2.784-3.576 5.064-5.832 6.84a28.785 28.785 0 0 1-7.488 4.248c-2.736 1.056-5.664 1.8-8.784 2.232a70.83 70.83 0 0 1-9.72.648 626.586 626.586 0 0 0-12.6 19.08 956.364 956.364 0 0 0-11.52 18.576c-3.504 5.808-6.504 10.92-9 15.336-2.496 4.416-4.224 7.536-5.184 9.36-1.632 3.36-2.712 6.072-3.24 8.136-.528 2.064-.12 3.096 1.224 3.096 2.016 0 4.272-.936 6.768-2.808 2.496-1.872 4.992-4.224 7.488-7.056a67.217 67.217 0 0 0 6.84-9.288c2.064-3.36 3.72-6.528 4.968-9.504 1.248-2.976 1.872-5.568 1.872-7.776s-.864-3.552-2.592-4.032h14.976c-4.416 8.736-9.168 16.464-14.256 23.184a163.7 163.7 0 0 1-6.984 8.496c-2.448 2.784-5.04 5.256-7.776 7.416-2.736 2.16-5.544 3.888-8.424 5.184-2.88 1.296-5.76 1.944-8.64 1.944-1.728 0-3.048-.336-3.96-1.008-.912-.672-1.488-1.608-1.728-2.808-.24-1.2-.192-2.64.144-4.32.336-1.68.792-3.576 1.368-5.688-3.648 3.936-7.488 7.224-11.52 9.864-4.032 2.64-8.208 3.96-12.528 3.96-2.208 0-3.72-.48-4.536-1.44-.816-.96-1.2-2.328-1.152-4.104.048-1.776.408-3.912 1.08-6.408a175.816 175.816 0 0 1 2.448-8.208c.864-2.688 2.616-6.48 5.256-11.376 2.64-4.896 5.688-10.248 9.144-16.056 3.456-5.808 7.056-11.76 10.8-17.856a915.467 915.467 0 0 0 10.08-16.776c-3.36 0-6.36.24-9 .72-2.64.48-4.824 1.392-6.552 2.736 1.344-1.728 3.552-3.144 6.624-4.248 3.072-1.104 6.72-2.04 10.944-2.808 2.496-4.32 4.392-7.896 5.688-10.728 1.296-2.832 1.656-4.488 1.08-4.968 1.728-1.152 3.864-2.304 6.408-3.456a97.22 97.22 0 0 1 7.92-3.168 75.466 75.466 0 0 1 8.208-2.376c2.736-.624 5.208-.936 7.416-.936zM800.05 73.872c3.36-5.664 6.84-11.424 10.44-17.28a1195.14 1195.14 0 0 0 10.008-16.56l-12.672-1.296a550.546 550.546 0 0 0-12.888 19.512 1348.364 1348.364 0 0 0-11.88 19.152c-3.648 6-6.792 11.304-9.432 15.912-2.64 4.608-4.44 7.872-5.4 9.792-1.632 3.36-2.712 6.072-3.24 8.136-.528 2.064-.12 3.096 1.224 3.096 2.016 0 4.272-.936 6.768-2.808 2.496-1.872 4.992-4.224 7.488-7.056a67.217 67.217 0 0 0 6.84-9.288c2.064-3.36 3.72-6.528 4.968-9.504 1.248-2.976 1.872-5.568 1.872-7.776s-.864-3.552-2.592-4.032h8.496zm61.776 27.648c-2.112 0-3.84-.384-5.184-1.152a110.39 110.39 0 0 1-7.992 7.776c-2.736 2.4-5.472 4.488-8.208 6.264-2.736 1.776-5.424 3.168-8.064 4.176-2.64 1.008-5.112 1.512-7.416 1.512-3.648 0-6.168-1.272-7.56-3.816-1.392-2.544-1.92-5.856-1.584-9.936.336-4.08 1.416-8.664 3.24-13.752 1.824-5.088 4.104-10.152 6.84-15.192a109.196 109.196 0 0 1 9.288-14.328c3.456-4.512 6.984-8.208 10.584-11.088 3.6-2.88 7.128-4.728 10.584-5.544 3.456-.816 6.624-.072 9.504 2.232 4.224-.864 7.488-.84 9.792.072 2.304.912 3.792 2.496 4.464 4.752.672 2.256.624 5.04-.144 8.352-.768 3.312-2.064 6.864-3.888 10.656-1.824 3.792-4.104 7.728-6.84 11.808a131.773 131.773 0 0 1-8.856 11.736c.384 1.152 1.488 1.728 3.312 1.728 2.112 0 4.344-1.008 6.696-3.024a30.558 30.558 0 0 0 6.048-7.056c1.68-2.688 2.712-5.352 3.096-7.992.384-2.64-.384-4.584-2.304-5.832h14.976c-2.88 5.184-5.952 9.792-9.216 13.824a90.373 90.373 0 0 1-4.608 5.112 40.049 40.049 0 0 1-5.112 4.464 25.395 25.395 0 0 1-5.544 3.096 15.764 15.764 0 0 1-5.904 1.152zm-6.048-25.488a48.198 48.198 0 0 1 2.88-7.632 90.654 90.654 0 0 1 3.456-6.552c1.152-1.968 2.256-3.672 3.312-5.112a411.61 411.61 0 0 1 2.448-3.312c-1.728 0-3.792.864-6.192 2.592-2.4 1.728-4.92 4.056-7.56 6.984-2.64 2.928-5.352 6.24-8.136 9.936a165.186 165.186 0 0 0-7.848 11.376c-2.448 3.888-4.632 7.68-6.552 11.376-1.92 3.696-3.384 7.008-4.392 9.936-1.008 2.928-1.44 5.28-1.296 7.056.144 1.776 1.032 2.664 2.664 2.664 2.016 0 4.08-.552 6.192-1.656 2.112-1.104 4.224-2.592 6.336-4.464 2.112-1.872 4.152-4.104 6.12-6.696a117.748 117.748 0 0 0 5.688-8.208c-.384-1.92-.456-3.936-.216-6.048.24-2.112.6-4.08 1.08-5.904a40.333 40.333 0 0 1 2.016-6.336zm62.928 25.488c-2.112 0-3.84-.384-5.184-1.152a110.39 110.39 0 0 1-7.992 7.776c-2.736 2.4-5.472 4.488-8.208 6.264-2.736 1.776-5.424 3.168-8.064 4.176-2.64 1.008-5.112 1.512-7.416 1.512-3.648 0-6.168-1.272-7.56-3.816-1.392-2.544-1.92-5.856-1.584-9.936.336-4.08 1.416-8.664 3.24-13.752 1.824-5.088 4.104-10.152 6.84-15.192a109.196 109.196 0 0 1 9.288-14.328c3.456-4.512 6.984-8.208 10.584-11.088 3.6-2.88 7.128-4.728 10.584-5.544 3.456-.816 6.624-.072 9.504 2.232 4.224-.864 7.488-.84 9.792.072 2.304.912 3.792 2.496 4.464 4.752.672 2.256.624 5.04-.144 8.352-.768 3.312-2.064 6.864-3.888 10.656-1.824 3.792-4.104 7.728-6.84 11.808a131.773 131.773 0 0 1-8.856 11.736c.384 1.152 1.488 1.728 3.312 1.728 2.112 0 4.344-1.008 6.696-3.024a30.558 30.558 0 0 0 6.048-7.056c1.68-2.688 2.712-5.352 3.096-7.992.384-2.64-.384-4.584-2.304-5.832h14.976c-2.88 5.184-5.952 9.792-9.216 13.824a90.373 90.373 0 0 1-4.608 5.112 40.049 40.049 0 0 1-5.112 4.464 25.395 25.395 0 0 1-5.544 3.096 15.764 15.764 0 0 1-5.904 1.152zm-6.048-25.488a48.198 48.198 0 0 1 2.88-7.632 90.654 90.654 0 0 1 3.456-6.552c1.152-1.968 2.256-3.672 3.312-5.112a411.61 411.61 0 0 1 2.448-3.312c-1.728 0-3.792.864-6.192 2.592-2.4 1.728-4.92 4.056-7.56 6.984-2.64 2.928-5.352 6.24-8.136 9.936a165.186 165.186 0 0 0-7.848 11.376c-2.448 3.888-4.632 7.68-6.552 11.376-1.92 3.696-3.384 7.008-4.392 9.936-1.008 2.928-1.44 5.28-1.296 7.056.144 1.776 1.032 2.664 2.664 2.664 2.016 0 4.08-.552 6.192-1.656 2.112-1.104 4.224-2.592 6.336-4.464 2.112-1.872 4.152-4.104 6.12-6.696a117.748 117.748 0 0 0 5.688-8.208c-.384-1.92-.456-3.936-.216-6.048.24-2.112.6-4.08 1.08-5.904a40.333 40.333 0 0 1 2.016-6.336zm46.512-17.568a50.345 50.345 0 0 1 7.344-6.336c2.208-1.632 4.776-3.072 7.704-4.32 2.928-1.248 6.072-1.824 9.432-1.728-.864.288-1.68 1.536-2.448 3.744s-1.536 5.064-2.304 8.568c-.768 3.504-1.632 7.464-2.592 11.88a210.46 210.46 0 0 1-3.384 13.392 132.345 132.345 0 0 1-4.608 13.32c-1.776 4.368-3.864 8.232-6.264 11.592 3.456-2.88 6.768-6.168 9.936-9.864 3.168-3.696 5.784-7.272 7.848-10.728 2.064-3.456 3.408-6.504 4.032-9.144.624-2.64.12-4.392-1.512-5.256h14.976c-2.688 4.512-5.952 9.24-9.792 14.184a142.167 142.167 0 0 1-12.312 13.896c-4.368 4.32-8.904 8.064-13.608 11.232-4.704 3.168-9.312 5.328-13.824 6.48-1.92.48-3.84.72-5.76.72-4.224 0-7.248-1.488-9.072-4.464-1.824-2.976-2.712-6.576-2.664-10.8.048-4.224.888-8.616 2.52-13.176 1.632-4.56 3.768-8.424 6.408-11.592 2.64-3.168 5.592-5.184 8.856-6.048 3.264-.864 6.576.24 9.936 3.312-1.248 0-2.784.96-4.608 2.88-1.824 1.92-3.624 4.344-5.4 7.272-1.776 2.928-3.408 6.096-4.896 9.504-1.488 3.408-2.592 6.576-3.312 9.504-.72 2.928-.912 5.376-.576 7.344.336 1.968 1.464 2.952 3.384 2.952s3.816-1.224 5.688-3.672c1.872-2.448 3.624-5.568 5.256-9.36 1.632-3.792 3.072-7.992 4.32-12.6 1.248-4.608 2.16-9.072 2.736-13.392.576-4.32.768-8.208.576-11.664-.192-3.456-.864-6-2.016-7.632z" fill-rule="evenodd"/></svg>