<svg xmlns="http://www.w3.org/2000/svg" xmlns:xlink="http://www.w3.org/1999/xlink" width="998" height="143" version="1.1" viewBox="0 0 998 143"><title>Sin Corazon Tattoos</title><desc>Created with Sketch.</desc><g id="Page-1" fill="none" fill-rule="evenodd" stroke="none" stroke-width="1"><path id="Sin-Corazon-Tattoos" fill="#000" d="M64.4971054,5.616 C61.9050924,5.03999712 59.2651188,5.27999472 56.5771054,6.336 C53.8890919,7.39200528 51.4651162,9.07198848 49.3051054,11.376 C47.1450946,13.6800115 45.3211128,16.4879834 43.8331054,19.8 C42.3450979,23.1120166 41.5051063,26.7359803 41.3131054,30.672 C41.1211044,34.6080197 41.6730989,38.7359784 42.9691054,43.056 C44.2651118,47.3760216 46.5930886,51.6959784 49.9531054,56.016 C53.6971241,60.9120245 56.0971001,65.9999736 57.1531054,71.28 C58.2091106,76.5600264 58.2571102,81.7439746 57.2971054,86.832 C56.3371006,91.9200254 54.5131188,96.6719779 51.8251054,101.088 C49.1370919,105.504022 45.9211241,109.271984 42.1771054,112.392 C38.4330866,115.512016 34.3771272,117.791993 30.0091054,119.232 C25.6410835,120.672007 21.297127,120.912005 16.9771054,119.952 C12.4650828,118.991995 8.91311832,117.168013 6.32110536,114.48 C3.7290924,111.791987 1.95311016,108.672018 0.993105361,105.12 C0.0331005613,101.567982 -0.230896799,97.7760202 0.201105361,93.744 C0.633107521,89.7119798 1.5450984,85.8480185 2.93710536,82.152 C4.32911232,78.4559815 6.15309408,75.0720154 8.40910536,72 C10.6651166,68.9279846 13.1130922,66.6240077 15.7531054,65.088 C18.3931186,63.5519923 21.153091,62.9279986 24.0331054,63.216 C26.9131198,63.5040014 29.6970919,65.1359851 32.3851054,68.112 C30.9450982,67.7279981 29.1931157,68.5679897 27.1291054,70.632 C25.065095,72.6960103 23.0491152,75.3839834 21.0811054,78.696 C19.1130955,82.0080166 17.3371133,85.6799798 15.7531054,89.712 C14.1690974,93.7440202 13.0891082,97.5839818 12.5131054,101.232 C11.9371025,104.880018 12.0331015,108.047987 12.8011054,110.736 C13.5691092,113.424013 15.393091,115.103997 18.2731054,115.776 C20.3851159,116.256002 22.8570912,116.088004 25.6891054,115.272 C28.5211195,114.455996 31.2810919,113.08801 33.9691054,111.168 C36.6571188,109.24799 39.0570948,106.800015 41.1691054,103.824 C43.2811159,100.847985 44.6971018,97.4400192 45.4171054,93.6 C46.137109,89.7599808 45.9211111,85.5120233 44.7691054,80.856 C43.6170996,76.1999767 41.1211246,71.2320264 37.2811054,65.952 C32.8650833,59.9039698 30.0091118,54.0240286 28.7131054,48.312 C27.4170989,42.5999714 27.2491006,37.248025 28.2091054,32.256 C29.1691102,27.263975 30.9930919,22.7280204 33.6811054,18.648 C36.3691188,14.5679796 39.4650878,11.1600137 42.9691054,8.424 C46.4731229,5.68798632 50.1690859,3.720006 54.0571054,2.52 C57.9451248,1.319994 61.5690886,1.05599664 64.9291054,1.728 C68.4811231,2.49600384 71.1210967,3.69599184 72.8491054,5.328 C74.577114,6.96000816 75.681103,8.83198944 76.1611054,10.944 C78.9451193,7.1039808 82.0170886,4.32000864 85.3771054,2.592 C88.7371222,0.86399136 92.5770838,1.05598944 96.8971054,3.168 C95.7450996,3.168 94.401113,4.43998728 92.8651054,6.984 C91.3290977,9.52801272 89.5771152,12.6719813 87.6091054,16.416 C85.6410955,20.1600187 83.4091178,24.1679786 80.9131054,28.44 C78.4170929,32.7120214 75.6331207,36.6239822 72.5611054,40.176 C69.48909,43.7280178 66.1291236,46.5599894 62.4811054,48.672 C58.8330871,50.7840106 54.849127,51.5520029 50.5291054,50.976 C52.5451154,50.8799995 54.4410965,49.6800115 56.2171054,47.376 C57.9931142,45.0719885 59.7450967,42.216017 61.4731054,38.808 C63.201114,35.399983 64.9770962,31.7040199 66.8011054,27.72 C68.6251145,23.7359801 70.5930948,19.9680178 72.7051054,16.416 C72.7051054,13.823987 72.1051114,11.5440098 70.9051054,9.576 C69.7050994,7.60799016 67.5691207,6.28800336 64.4971054,5.616 L64.4971054,5.616 Z M81.6331054,47.232 C85.2811236,47.232 88.3050934,47.5919964 90.7051054,48.312 C93.1051174,49.0320036 95.0250982,49.8239957 96.4651054,50.688 C98.193114,51.7440053 99.489101,52.8959938 100.353105,54.144 C92.481066,65.3760562 85.8091327,75.4079558 80.3371054,84.24 C78.0330938,87.9840187 75.8251159,91.6799818 73.7131054,95.328 C71.6010948,98.9760182 69.8971118,102.191986 68.6011054,104.976 C67.3050989,107.760014 66.5131068,110.015991 66.2251054,111.744 C65.9371039,113.472009 66.3690996,114.336 67.5211054,114.336 C69.5371154,114.336 71.8890919,113.400009 74.5771054,111.528 C77.2651188,109.655991 79.9530919,107.304014 82.6411054,104.472 C85.3291188,101.639986 87.8970931,98.5440168 90.3451054,95.184 C92.7931176,91.8239832 94.7610979,88.6560149 96.2491054,85.68 C97.7371128,82.7039851 98.5771044,80.112011 98.7691054,77.904 C98.9611063,75.695989 98.193114,74.3520024 96.4651054,73.872 L111.441105,73.872 C106.257079,82.6080437 100.881133,90.3359664 95.3131054,97.056 C92.9130934,99.9360144 90.3691188,102.767986 87.6811054,105.552 C84.9930919,108.336014 82.2091198,110.807989 79.3291054,112.968 C76.449091,115.128011 73.5211202,116.855994 70.5451054,118.152 C67.5690905,119.448006 64.6411198,120.096 61.7611054,120.096 C58.5930895,120.096 56.649109,119.06401 55.9291054,117 C55.2091018,114.93599 55.3051008,112.176017 56.2171054,108.72 C57.1291099,105.263983 58.6410948,101.352022 60.7531054,96.984 C62.8651159,92.6159782 65.1690929,88.1760226 67.6651054,83.664 C70.1611178,79.1519774 72.6330931,74.7120218 75.0811054,70.344 C77.5291176,65.9759782 79.5450974,62.0640173 81.1291054,58.608 C82.7131133,55.1519827 83.6491039,52.3920103 83.9371054,50.328 C84.2251068,48.2639897 83.4571145,47.232 81.6331054,47.232 L81.6331054,47.232 Z M108.993105,37.296 C107.073096,37.296 105.65711,36.7200058 104.745105,35.568 C103.833101,34.4159942 103.329106,32.9040094 103.233105,31.032 C103.137105,29.1599906 103.473102,27.024012 104.241105,24.624 C105.009109,22.223988 106.161098,19.7760125 107.697105,17.28 C110.961122,16.6079966 113.793093,16.4639981 116.193105,16.848 C118.593117,17.2320019 120.105102,18.2159921 120.729105,19.8 C121.353108,21.3840079 120.801114,23.6159856 119.073105,26.496 C117.345097,29.3760144 113.98513,32.9759784 108.993105,37.296 Z M113.313105,46.368 C116.961124,46.368 119.985093,46.7279964 122.385105,47.448 C124.785117,48.1680036 126.705098,48.9599957 128.145105,49.824 C129.873114,50.8800053 131.169101,52.0319938 132.033105,53.28 C130.209096,55.872013 128.313115,58.6559851 126.345105,61.632 C124.377096,64.6080149 122.337116,67.6799842 120.225105,70.848 C122.817118,67.4879832 125.481092,64.2960151 128.217105,61.272 C130.953119,58.2479849 133.641092,55.632011 136.281105,53.424 C138.921119,51.215989 141.465093,49.4640065 143.913105,48.168 C146.361118,46.8719935 148.593095,46.2719995 150.609105,46.368 C152.337114,46.4640005 153.897098,46.8239969 155.289105,47.448 C156.681112,48.0720031 157.8811,48.7919959 158.889105,49.608 C159.89711,50.4240041 160.713102,51.3119952 161.337105,52.272 C161.961108,53.2320048 162.417104,54.0959962 162.705105,54.864 C161.745101,54.864 159.969118,56.3519851 157.377105,59.328 C154.785092,62.3040149 151.881121,66.0479774 148.665105,70.56 C145.449089,75.0720226 142.185122,79.9439738 138.873105,85.176 C135.561089,90.4080262 132.729117,95.2799774 130.377105,99.792 C128.025094,104.304023 126.441109,108.047985 125.625105,111.024 C124.809101,114.000015 125.265097,115.488 126.993105,115.488 C128.721114,115.488 130.785093,114.552009 133.185105,112.68 C135.585117,110.807991 138.009093,108.432014 140.457105,105.552 C142.905118,102.671986 145.209095,99.5040173 147.369105,96.048 C149.529116,92.5919827 151.257099,89.3280154 152.553105,86.256 C153.849112,83.1839846 154.545105,80.4960115 154.641105,78.192 C154.737106,75.8879885 153.921114,74.4480029 152.193105,73.872 L167.169105,73.872 C162.465082,82.6080437 157.66513,90.3359664 152.769105,97.056 C150.657095,99.9360144 148.425117,102.767986 146.073105,105.552 C143.721094,108.336014 141.321118,110.807989 138.873105,112.968 C136.425093,115.128011 133.929118,116.855994 131.385105,118.152 C128.841093,119.448006 126.369117,120.096 123.969105,120.096 C120.033086,120.096 117.321113,119.13601 115.833105,117.216 C114.345098,115.29599 113.721104,112.752016 113.961105,109.584 C114.201107,106.415984 115.161097,102.79202 116.841105,98.712 C118.521114,94.6319796 120.513094,90.4800211 122.817105,86.256 C128.289133,76.2719501 135.825057,64.9440634 145.425105,52.272 C143.793097,52.272 141.345122,53.6639861 138.081105,56.448 C134.817089,59.2320139 131.169126,62.8319779 127.137105,67.248 C123.105085,71.6640221 118.953127,76.6079726 114.681105,82.08 C110.409084,87.5520274 106.545123,92.9759731 103.089105,98.352 C101.361097,101.424015 99.8011123,104.303987 98.4091054,106.992 C97.0170984,109.680013 95.961109,111.98399 95.2411054,113.904 C94.5211018,115.82401 94.1611054,117.335994 94.1611054,118.44 C94.1611054,119.544006 94.593101,120.096 95.4571054,120.096 C91.8090871,120.096 89.4331109,119.13601 88.3291054,117.216 C87.2250998,115.29599 86.9611025,112.752016 87.5371054,109.584 C88.1131082,106.415984 89.3130962,102.79202 91.1371054,98.712 C92.9611145,94.6319796 95.0490936,90.4080218 97.4011054,86.04 C99.7531171,81.6719782 102.153093,77.3040218 104.601105,72.936 C107.049118,68.5679782 109.113097,64.584018 110.793105,60.984 C112.473114,57.383982 113.625102,54.288013 114.249105,51.696 C114.873108,49.103987 114.561112,47.3280048 113.313105,46.368 Z M242.913105,73.584 C244.545114,73.4879995 246.297096,72.3120113 248.169105,70.056 C250.041115,67.7999887 252.033095,64.872018 254.145105,61.272 C256.257116,57.671982 258.441094,53.6160226 260.697105,49.104 C262.953117,44.5919774 265.281093,40.032023 267.681105,35.424 C270.081117,30.815977 272.577092,26.3520216 275.169105,22.032 C277.761118,17.7119784 280.449091,13.9680158 283.233105,10.8 C280.449091,8.78398992 277.017126,8.7359904 272.937105,10.656 C268.857085,12.5760096 264.537128,15.8159772 259.977105,20.376 C255.417083,24.9360228 250.785129,30.4319678 246.081105,36.864 C241.377082,43.2960322 237.057125,50.0639645 233.121105,57.168 C229.185086,64.2720355 225.80112,71.3039652 222.969105,78.264 C220.137091,85.2240348 218.28911,91.4879722 217.425105,97.056 C216.561101,102.624028 216.873098,107.135983 218.361105,110.592 C219.849113,114.048017 222.945082,115.776 227.649105,115.776 C230.62512,115.776 233.817088,114.79201 237.225105,112.824 C240.633122,110.85599 243.993089,108.408015 247.305105,105.48 C250.617122,102.551985 253.689091,99.3120178 256.521105,95.76 C259.35312,92.2079822 261.609097,88.8720156 263.289105,85.752 C264.969114,82.6319844 265.977104,79.9440113 266.313105,77.688 C266.649107,75.4319887 265.953114,74.0640024 264.225105,73.584 L279.201105,73.584 C273.921079,82.3200437 268.305135,90.0479664 262.353105,96.768 C259.761092,99.6480144 257.00112,102.479986 254.073105,105.264 C251.145091,108.048014 248.097121,110.519989 244.929105,112.68 C241.76109,114.840011 238.473122,116.591993 235.065105,117.936 C231.657088,119.280007 228.225123,119.952 224.769105,119.952 C219.201078,119.952 214.95312,118.536014 212.025105,115.704 C209.097091,112.871986 207.249109,109.080024 206.481105,104.328 C205.713102,99.5759762 205.8571,94.104031 206.913105,87.912 C207.969111,81.719969 209.721093,75.2640336 212.169105,68.544 C214.617118,61.8239664 217.641087,55.1040336 221.241105,48.384 C224.841123,41.6639664 228.777084,35.3760293 233.049105,29.52 C237.321127,23.6639707 241.785082,18.4800226 246.441105,13.968 C251.097129,9.45597744 255.729082,6.1200108 260.337105,3.96 C264.945128,1.7999892 269.385084,0.98399736 273.657105,1.512 C277.929127,2.04000264 281.793088,4.41597888 285.249105,8.64 C288.033119,5.7599856 290.889091,3.76800552 293.817105,2.664 C296.74512,1.55999448 299.74509,1.7279928 302.817105,3.168 C301.6651,3.168 300.009116,4.99198176 297.849105,8.64 C295.689095,12.2880182 293.09712,16.8239729 290.073105,22.248 C287.04909,27.6720271 283.713124,33.5039688 280.065105,39.744 C276.417087,45.9840312 272.577126,51.7199738 268.545105,56.952 C264.513085,62.1840262 260.313127,66.4079839 255.945105,69.624 C251.577084,72.8400161 247.233127,74.1600029 242.913105,73.584 L242.913105,73.584 Z M305.697105,101.52 C303.585095,101.52 301.857112,101.136004 300.513105,100.368 C297.921092,103.152014 295.257119,105.743988 292.521105,108.144 C289.785092,110.544012 287.049119,112.631991 284.313105,114.408 C281.577092,116.184009 278.889119,117.575995 276.249105,118.584 C273.609092,119.592005 271.137117,120.096 268.833105,120.096 C265.185087,120.096 262.665112,118.824013 261.273105,116.28 C259.881098,113.735987 259.353104,110.42402 259.689105,106.344 C260.025107,102.26398 261.105096,97.6800254 262.929105,92.592 C264.753114,87.5039746 267.033092,82.4400252 269.769105,77.4 C272.505119,72.3599748 275.601088,67.5840226 279.057105,63.072 C282.513123,58.5599774 286.041087,54.8640144 289.641105,51.984 C293.241123,49.1039856 296.769088,47.2560041 300.225105,46.44 C303.681123,45.6239959 306.849091,46.3679885 309.729105,48.672 C313.953126,47.8079957 317.217094,47.8319954 319.521105,48.744 C321.825117,49.6560046 323.313102,51.2399887 323.985105,53.496 C324.657109,55.7520113 324.609109,58.5359834 323.841105,61.848 C323.073102,65.1600166 321.777114,68.711981 319.953105,72.504 C318.129096,76.296019 315.849119,80.2319796 313.113105,84.312 C310.377092,88.3920204 307.425121,92.3039813 304.257105,96.048 C304.641107,97.2000058 305.745096,97.776 307.569105,97.776 C309.681116,97.776 311.913094,96.7680101 314.265105,94.752 C316.617117,92.7359899 318.633097,90.3840134 320.313105,87.696 C321.993114,85.0079866 323.025103,82.3440132 323.409105,79.704 C323.793107,77.0639868 323.025115,75.1200062 321.105105,73.872 L336.081105,73.872 C333.201091,79.0560259 330.129122,83.6639798 326.865105,87.696 C325.425098,89.4240086 323.889114,91.1279916 322.257105,92.808 C320.625097,94.4880084 318.921114,95.9759935 317.145105,97.272 C315.369096,98.5680065 313.521115,99.5999962 311.601105,100.368 C309.681096,101.136004 307.713115,101.52 305.697105,101.52 L305.697105,101.52 Z M299.649105,76.032 C300.417109,73.3439866 301.3771,70.800012 302.529105,68.4 C303.681111,65.999988 304.8331,63.8160098 305.985105,61.848 C307.137111,59.8799902 308.2411,58.1760072 309.297105,56.736 C310.353111,55.2959928 311.169102,54.1920038 311.745105,53.424 C310.017097,53.424 307.953117,54.2879914 305.553105,56.016 C303.153093,57.7440086 300.633119,60.0719854 297.993105,63 C295.353092,65.9280146 292.641119,69.2399815 289.857105,72.936 C287.073091,76.6320185 284.457118,80.4239806 282.009105,84.312 C279.561093,88.2000194 277.377115,91.9919815 275.457105,95.688 C273.537096,99.3840185 272.07311,102.695985 271.065105,105.624 C270.0571,108.552015 269.625105,110.903991 269.769105,112.68 C269.913106,114.456009 270.801097,115.344 272.433105,115.344 C274.449115,115.344 276.513095,114.792006 278.625105,113.688 C280.737116,112.583994 282.849095,111.096009 284.961105,109.224 C287.073116,107.351991 289.113096,105.120013 291.081105,102.528 C293.049115,99.935987 294.945096,97.2000144 296.769105,94.32 C296.385103,92.3999904 296.313104,90.3840106 296.553105,88.272 C296.793107,86.1599894 297.153103,84.1920091 297.633105,82.368 C298.113108,80.2559894 298.785101,78.1440106 299.649105,76.032 L299.649105,76.032 Z M321.825105,110.016 C320.385098,113.088015 319.497107,115.535991 319.161105,117.36 C318.825104,119.184009 319.2331,120.096 320.385105,120.096 C316.833088,120.096 314.505111,119.13601 313.401105,117.216 C312.2971,115.29599 312.009103,112.752016 312.537105,109.584 C313.065108,106.415984 314.265096,102.79202 316.137105,98.712 C318.009115,94.6319796 320.121094,90.4080218 322.473105,86.04 C324.825117,81.6719782 327.201093,77.3040218 329.601105,72.936 C332.001117,68.5679782 334.065097,64.584018 335.793105,60.984 C337.521114,57.383982 338.673102,54.288013 339.249105,51.696 C339.825108,49.103987 339.489112,47.3280048 338.241105,46.368 C341.889124,46.368 344.913093,46.7279964 347.313105,47.448 C349.713117,48.1680036 351.633098,48.9599957 353.073105,49.824 C354.801114,50.8800053 356.145101,52.0319938 357.105105,53.28 C355.185096,56.0640139 353.121116,59.1119834 350.913105,62.424 C348.705094,65.7360166 346.449117,69.1199827 344.145105,72.576 C341.841094,76.0320173 339.561117,79.5359822 337.305105,83.088 C335.049094,86.6400178 332.913115,90.0959832 330.897105,93.456 C333.969121,89.8079818 337.06509,86.4960149 340.185105,83.52 C343.305121,80.5439851 346.257091,77.952011 349.041105,75.744 C350.00111,73.2479875 351.201098,70.6560134 352.641105,67.968 C354.081113,65.2799866 355.737096,62.6640127 357.609105,60.12 C359.481115,57.5759873 361.569094,55.1520115 363.873105,52.848 C366.177117,50.5439885 368.721091,48.4800091 371.505105,46.656 L385.185105,46.656 C384.609102,48.7680106 383.265116,51.2399858 381.153105,54.072 C379.041095,56.9040142 376.52112,59.7599856 373.593105,62.64 C370.665091,65.5200144 367.473123,68.2799868 364.017105,70.92 C360.561088,73.5600132 357.249121,75.6959918 354.081105,77.328 C354.081105,77.4240005 354.057106,77.472 354.009105,77.472 C353.961105,77.472 353.937105,77.5199995 353.937105,77.616 C353.457103,78.2880034 352.977108,79.4639916 352.497105,81.144 C352.017103,82.8240084 351.729106,84.5519911 351.633105,86.328 C351.537105,88.1040089 351.705103,89.687993 352.137105,91.08 C352.569108,92.472007 353.505098,93.168 354.945105,93.168 C357.057116,93.168 359.409092,92.4000077 362.001105,90.864 C364.593118,89.3279923 366.825096,87.5040106 368.697105,85.392 C370.569115,83.2799894 371.793102,81.1440108 372.369105,78.984 C372.945108,76.8239892 372.273115,75.1200062 370.353105,73.872 L385.329105,73.872 C382.25709,78.1920216 378.993123,81.9839837 375.537105,85.248 C372.56109,88.1280144 369.177124,90.7439882 365.385105,93.096 C361.593086,95.4480118 357.681126,96.624 353.649105,96.624 C350.57709,96.624 348.53711,95.3040132 347.529105,92.664 C346.5211,90.0239868 346.401102,86.6880202 347.169105,82.656 C344.961094,84.3840086 342.681117,86.3039894 340.329105,88.416 C337.977094,90.5280106 335.673117,92.7599882 333.417105,95.112 C331.161094,97.4640118 329.025115,99.8879875 327.009105,102.384 C324.993095,104.880012 323.265113,107.423987 321.825105,110.016 L321.825105,110.016 Z M419.601105,47.232 C423.249124,47.232 426.273093,47.5919964 428.673105,48.312 C431.073117,49.0320036 432.993098,49.8239957 434.433105,50.688 C436.161114,51.7440053 437.457101,52.8959938 438.321105,54.144 C430.449066,65.3760562 423.777133,75.4079558 418.305105,84.24 C416.001094,87.9840187 413.793116,91.6799818 411.681105,95.328 C409.569095,98.9760182 407.865112,102.191986 406.569105,104.976 C405.273099,107.760014 404.481107,110.015991 404.193105,111.744 C403.905104,113.472009 404.3371,114.336 405.489105,114.336 C407.505115,114.336 409.761093,113.400009 412.257105,111.528 C414.753118,109.655991 417.225093,107.304014 419.673105,104.472 C422.121118,101.639986 424.401095,98.5440168 426.513105,95.184 C428.625116,91.8239832 430.281099,88.6560149 431.481105,85.68 C432.681111,82.7039851 433.281105,80.112011 433.281105,77.904 C433.281105,75.695989 432.417114,74.3520024 430.689105,73.872 L445.665105,73.872 C441.249083,82.6080437 436.497131,90.3359664 431.409105,97.056 C429.201094,99.9360144 426.873118,102.767986 424.425105,105.552 C421.977093,108.336014 419.385119,110.807989 416.649105,112.968 C413.913092,115.128011 411.10512,116.855994 408.225105,118.152 C405.345091,119.448006 402.46512,120.096 399.585105,120.096 C396.225089,120.096 394.257108,118.920012 393.681105,116.568 C393.105102,114.215988 393.3931,111.120019 394.545105,107.28 C391.185089,111.024019 387.729123,114.095988 384.177105,116.496 C380.625088,118.896012 377.073123,120.096 373.521105,120.096 C370.35309,120.096 368.241111,118.704014 367.185105,115.92 C366.1291,113.135986 365.865103,109.560022 366.393105,105.192 C366.921108,100.823978 368.121096,95.9280271 369.993105,90.504 C371.865115,85.0799729 374.193091,79.7280264 376.977105,74.448 C379.761119,69.1679736 382.905088,64.2480228 386.409105,59.688 C389.913123,55.1279772 393.489087,51.5040134 397.137105,48.816 C400.785124,46.1279866 404.409087,44.7120007 408.009105,44.568 C411.609123,44.4239993 414.94509,46.0799827 418.017105,49.536 C419.265112,51.0720077 420.033104,53.135987 420.321105,55.728 C421.377111,53.135987 421.905105,51.0720077 421.905105,49.536 C421.905105,47.9999923 421.137113,47.232 419.601105,47.232 L419.601105,47.232 Z M378.129105,115.056 C380.145115,115.056 382.497092,113.832012 385.185105,111.384 C387.873119,108.935988 390.561092,105.864018 393.249105,102.168 C395.937119,98.4719815 398.481093,94.4400218 400.881105,90.072 C403.281117,85.7039782 405.201098,81.6000192 406.641105,77.76 C408.081113,73.9199808 408.897104,70.6080139 409.089105,67.824 C409.281106,65.0399861 408.513114,63.4080024 406.785105,62.928 L415.857105,62.928 C416.337108,61.0079904 416.505106,59.352007 416.361105,57.96 C416.217105,56.567993 415.71311,55.6320024 414.849105,55.152 C412.545094,53.9999942 409.761122,54.6719875 406.497105,57.168 C403.233089,59.6640125 399.921122,63.1439777 396.561105,67.608 C393.201089,72.0720223 389.961121,77.0399726 386.841105,82.512 C383.72109,87.9840274 381.201115,93.1439758 379.281105,97.992 C377.361096,102.840024 376.185108,106.895984 375.753105,110.16 C375.321103,113.424016 376.113095,115.056 378.129105,115.056 L378.129105,115.056 Z M436.161105,138.816 C432.801089,140.544009 429.321123,141.599998 425.721105,141.984 C422.121087,142.368002 418.353125,141.744008 414.417105,140.112 C417.489121,140.784003 420.60909,140.472006 423.777105,139.176 C426.945121,137.879994 429.921091,136.080012 432.705105,133.776 C435.489119,131.471988 437.913095,128.880014 439.977105,126 C442.041116,123.119986 443.553101,120.384013 444.513105,117.792 C445.47311,115.199987 445.713108,112.968009 445.233105,111.096 C444.753103,109.223991 443.313117,108.144001 440.913105,107.856 C439.569099,108.240002 438.201112,108.551999 436.809105,108.792 C435.417098,109.032001 433.905114,109.247999 432.273105,109.44 L435.585105,108 C438.46512,106.463992 441.057094,104.496012 443.361105,102.096 C445.665117,99.695988 447.825095,97.0320146 449.841105,94.104 C451.857115,91.1759854 453.825096,88.0800163 455.745105,84.816 C457.665115,81.5519837 459.705095,78.3120161 461.865105,75.096 C464.025116,71.8799839 466.329093,68.8320144 468.777105,65.952 C471.225118,63.0719856 473.98509,60.528011 477.057105,58.32 C478.401112,58.7040019 479.985096,58.7280017 481.809105,58.392 C483.633114,58.0559983 485.505096,57.6480024 487.425105,57.168 C485.793097,57.2640005 484.353112,57.0720024 483.105105,56.592 C481.857099,56.1119976 480.609112,55.5840029 479.361105,55.008 C478.113099,54.4319971 476.841112,53.8800026 475.545105,53.352 C474.249099,52.8239974 472.689114,52.56 470.865105,52.56 C469.233097,52.56 467.433115,53.4719909 465.465105,55.296 C463.497096,57.1200091 461.481116,59.3999863 459.417105,62.136 C457.353095,64.8720137 455.361115,67.8959834 453.441105,71.208 C451.521096,74.5200166 449.913112,77.6639851 448.617105,80.64 C447.321099,83.6160149 446.361108,86.2319887 445.737105,88.488 C445.113102,90.7440113 445.089102,92.2079966 445.665105,92.88 C441.921087,93.2640019 439.329113,92.4000106 437.889105,90.288 C436.449098,88.1759894 435.897104,85.416017 436.233105,82.008 C436.569107,78.599983 437.697096,74.8800202 439.617105,70.848 C441.537115,66.8159798 443.98509,63.0480175 446.961105,59.544 C449.93712,56.0399825 453.369086,53.1120118 457.257105,50.76 C461.145125,48.4079882 465.249084,47.232 469.569105,47.232 C472.54512,47.232 475.113095,47.735995 477.273105,48.744 C479.433116,49.752005 481.401096,50.8079945 483.177105,51.912 C484.953114,53.0160055 486.681097,53.9519962 488.361105,54.72 C490.041114,55.4880038 491.889095,55.5840029 493.905105,55.008 C494.673109,54.7199986 495.321103,54.480001 495.849105,54.288 C496.377108,54.095999 496.737104,53.904001 496.929105,53.712 L496.065105,54.144 L496.929105,53.712 C497.025106,53.712 497.121105,53.6640005 497.217105,53.568 C497.121105,53.6640005 497.025106,53.712 496.929105,53.712 C497.025106,53.712 497.121105,53.6640005 497.217105,53.568 C493.569087,55.5840101 490.401119,57.9119868 487.713105,60.552 C485.025092,63.1920132 482.577116,66.0239849 480.369105,69.048 C478.161094,72.0720151 476.073115,75.1919839 474.105105,78.408 C472.137096,81.6240161 470.097116,84.7439849 467.985105,87.768 C465.873095,90.7920151 463.521118,93.6479866 460.929105,96.336 C458.337092,99.0240134 455.361122,101.37599 452.001105,103.392 C454.401117,103.103999 456.489096,102.984 458.265105,103.032 C460.041114,103.08 461.553099,103.199999 462.801105,103.392 C464.241113,103.680001 465.441101,103.967999 466.401105,104.256 C465.729102,105.792008 464.865111,107.423991 463.809105,109.152 C462.945101,110.592007 461.889112,112.27199 460.641105,114.192 C459.393099,116.11201 458.001113,118.07999 456.465105,120.096 C459.34512,117.215986 462.201091,114.072017 465.033105,110.664 C467.86512,107.255983 470.529093,103.872017 473.025105,100.512 C475.521118,97.1519832 477.753096,93.8880158 479.721105,90.72 C481.689115,87.5519842 483.297099,84.7440122 484.545105,82.296 C485.793112,79.8479878 486.537104,77.8560077 486.777105,76.32 C487.017107,74.7839923 486.65711,73.9680005 485.697105,73.872 L500.673105,73.872 C499.6171,75.4080077 497.745119,77.9039827 495.057105,81.36 C492.369092,84.8160173 489.177124,88.7759777 485.481105,93.24 C481.785087,97.7040223 477.729127,102.359976 473.313105,107.208 C468.897083,112.056024 464.457128,116.639978 459.993105,120.96 C455.529083,125.280022 451.233126,129.071984 447.105105,132.336 C442.977085,135.600016 439.329121,137.807994 436.161105,138.96 L436.161105,138.816 Z M526.305105,101.52 C524.193095,101.52 522.465112,101.136004 521.121105,100.368 C518.529092,103.152014 515.865119,105.743988 513.129105,108.144 C510.393092,110.544012 507.657119,112.631991 504.921105,114.408 C502.185092,116.184009 499.497119,117.575995 496.857105,118.584 C494.217092,119.592005 491.745117,120.096 489.441105,120.096 C485.793087,120.096 483.273112,118.824013 481.881105,116.28 C480.489098,113.735987 479.961104,110.42402 480.297105,106.344 C480.633107,102.26398 481.713096,97.6800254 483.537105,92.592 C485.361114,87.5039746 487.641092,82.4400252 490.377105,77.4 C493.113119,72.3599748 496.209088,67.5840226 499.665105,63.072 C503.121123,58.5599774 506.649087,54.8640144 510.249105,51.984 C513.849123,49.1039856 517.377088,47.2560041 520.833105,46.44 C524.289123,45.6239959 527.457091,46.3679885 530.337105,48.672 C534.561126,47.8079957 537.825094,47.8319954 540.129105,48.744 C542.433117,49.6560046 543.921102,51.2399887 544.593105,53.496 C545.265109,55.7520113 545.217109,58.5359834 544.449105,61.848 C543.681102,65.1600166 542.385114,68.711981 540.561105,72.504 C538.737096,76.296019 536.457119,80.2319796 533.721105,84.312 C530.985092,88.3920204 528.033121,92.3039813 524.865105,96.048 C525.249107,97.2000058 526.353096,97.776 528.177105,97.776 C530.289116,97.776 532.521094,96.7680101 534.873105,94.752 C537.225117,92.7359899 539.241097,90.3840134 540.921105,87.696 C542.601114,85.0079866 543.633103,82.3440132 544.017105,79.704 C544.401107,77.0639868 543.633115,75.1200062 541.713105,73.872 L556.689105,73.872 C553.809091,79.0560259 550.737122,83.6639798 547.473105,87.696 C546.033098,89.4240086 544.497114,91.1279916 542.865105,92.808 C541.233097,94.4880084 539.529114,95.9759935 537.753105,97.272 C535.977096,98.5680065 534.129115,99.5999962 532.209105,100.368 C530.289096,101.136004 528.321115,101.52 526.305105,101.52 L526.305105,101.52 Z M520.257105,76.032 C521.025109,73.3439866 521.9851,70.800012 523.137105,68.4 C524.289111,65.999988 525.4411,63.8160098 526.593105,61.848 C527.745111,59.8799902 528.8491,58.1760072 529.905105,56.736 C530.961111,55.2959928 531.777102,54.1920038 532.353105,53.424 C530.625097,53.424 528.561117,54.2879914 526.161105,56.016 C523.761093,57.7440086 521.241119,60.0719854 518.601105,63 C515.961092,65.9280146 513.249119,69.2399815 510.465105,72.936 C507.681091,76.6320185 505.065118,80.4239806 502.617105,84.312 C500.169093,88.2000194 497.985115,91.9919815 496.065105,95.688 C494.145096,99.3840185 492.68111,102.695985 491.673105,105.624 C490.6651,108.552015 490.233105,110.903991 490.377105,112.68 C490.521106,114.456009 491.409097,115.344 493.041105,115.344 C495.057115,115.344 497.121095,114.792006 499.233105,113.688 C501.345116,112.583994 503.457095,111.096009 505.569105,109.224 C507.681116,107.351991 509.721096,105.120013 511.689105,102.528 C513.657115,99.935987 515.553096,97.2000144 517.377105,94.32 C516.993103,92.3999904 516.921104,90.3840106 517.161105,88.272 C517.401107,86.1599894 517.761103,84.1920091 518.241105,82.368 C518.721108,80.2559894 519.393101,78.1440106 520.257105,76.032 L520.257105,76.032 Z M558.849105,46.368 C562.497124,46.368 565.521093,46.7279964 567.921105,47.448 C570.321117,48.1680036 572.241098,48.9599957 573.681105,49.824 C575.409114,50.8800053 576.705101,52.0319938 577.569105,53.28 C575.745096,55.872013 573.849115,58.6559851 571.881105,61.632 C569.913096,64.6080149 567.873116,67.6799842 565.761105,70.848 C568.353118,67.4879832 571.017092,64.2960151 573.753105,61.272 C576.489119,58.2479849 579.177092,55.632011 581.817105,53.424 C584.457119,51.215989 587.001093,49.4640065 589.449105,48.168 C591.897118,46.8719935 594.129095,46.2719995 596.145105,46.368 C597.873114,46.4640005 599.433098,46.8239969 600.825105,47.448 C602.217112,48.0720031 603.4171,48.7919959 604.425105,49.608 C605.43311,50.4240041 606.249102,51.3119952 606.873105,52.272 C607.497108,53.2320048 607.953104,54.0959962 608.241105,54.864 C607.281101,54.864 605.505118,56.3519851 602.913105,59.328 C600.321092,62.3040149 597.417121,66.0479774 594.201105,70.56 C590.985089,75.0720226 587.721122,79.9439738 584.409105,85.176 C581.097089,90.4080262 578.265117,95.2799774 575.913105,99.792 C573.561094,104.304023 571.977109,108.047985 571.161105,111.024 C570.345101,114.000015 570.801097,115.488 572.529105,115.488 C574.257114,115.488 576.321093,114.552009 578.721105,112.68 C581.121117,110.807991 583.545093,108.432014 585.993105,105.552 C588.441118,102.671986 590.745095,99.5040173 592.905105,96.048 C595.065116,92.5919827 596.793099,89.3280154 598.089105,86.256 C599.385112,83.1839846 600.081105,80.4960115 600.177105,78.192 C600.273106,75.8879885 599.457114,74.4480029 597.729105,73.872 L612.705105,73.872 C608.001082,82.6080437 603.20113,90.3359664 598.305105,97.056 C596.193095,99.9360144 593.961117,102.767986 591.609105,105.552 C589.257094,108.336014 586.857118,110.807989 584.409105,112.968 C581.961093,115.128011 579.465118,116.855994 576.921105,118.152 C574.377093,119.448006 571.905117,120.096 569.505105,120.096 C565.569086,120.096 562.857113,119.13601 561.369105,117.216 C559.881098,115.29599 559.257104,112.752016 559.497105,109.584 C559.737107,106.415984 560.697097,102.79202 562.377105,98.712 C564.057114,94.6319796 566.049094,90.4800211 568.353105,86.256 C573.825133,76.2719501 581.361057,64.9440634 590.961105,52.272 C589.329097,52.272 586.881122,53.6639861 583.617105,56.448 C580.353089,59.2320139 576.705126,62.8319779 572.673105,67.248 C568.641085,71.6640221 564.489127,76.6079726 560.217105,82.08 C555.945084,87.5520274 552.081123,92.9759731 548.625105,98.352 C546.897097,101.424015 545.337112,104.303987 543.945105,106.992 C542.553098,109.680013 541.497109,111.98399 540.777105,113.904 C540.057102,115.82401 539.697105,117.335994 539.697105,118.44 C539.697105,119.544006 540.129101,120.096 540.993105,120.096 C537.345087,120.096 534.969111,119.13601 533.865105,117.216 C532.7611,115.29599 532.497102,112.752016 533.073105,109.584 C533.649108,106.415984 534.849096,102.79202 536.673105,98.712 C538.497114,94.6319796 540.585094,90.4080218 542.937105,86.04 C545.289117,81.6719782 547.689093,77.3040218 550.137105,72.936 C552.585118,68.5679782 554.649097,64.584018 556.329105,60.984 C558.009114,57.383982 559.161102,54.288013 559.785105,51.696 C560.409108,49.103987 560.097112,47.3280048 558.849105,46.368 L558.849105,46.368 Z M775.425105,0 C774.657102,4.60802304 773.217116,8.37598536 771.105105,11.304 C768.993095,14.2320146 766.353121,16.5119918 763.185105,18.144 C760.01709,19.7760082 756.417126,20.8559974 752.385105,21.384 C748.353085,21.9120026 744.105128,22.1040007 739.641105,21.96 C735.177083,21.8159993 730.569129,21.4320031 725.817105,20.808 C721.065082,20.1839969 716.337129,19.4880038 711.633105,18.72 C713.649115,19.4880038 715.2331,20.4479942 716.385105,21.6 C717.537111,22.7520058 718.449102,23.8559947 719.121105,24.912 C719.793109,26.1600062 720.273104,27.5039928 720.561105,28.944 C718.545095,31.9200149 716.09712,35.4959791 713.217105,39.672 C710.337091,43.8480209 707.289121,48.335976 704.073105,53.136 C700.857089,57.936024 697.545122,62.9279741 694.137105,68.112 C690.729088,73.2960259 687.465121,78.3599753 684.345105,83.304 C681.22509,88.2480247 678.345119,92.9279779 675.705105,97.344 C673.065092,101.760022 670.881114,105.647983 669.153105,109.008 C667.425097,112.368017 666.273108,115.03199 665.697105,117 C665.121102,118.96801 665.313101,119.952 666.273105,119.952 C662.721088,119.952 660.681108,118.584014 660.153105,115.848 C659.625103,113.111986 660.129098,109.488023 661.665105,104.976 C663.201113,100.463977 665.50509,95.304029 668.577105,89.496 C671.649121,83.687971 675.009087,77.7120307 678.657105,71.568 C682.305124,65.4239693 685.953087,59.3280302 689.601105,53.28 C693.249124,47.2319698 696.417092,41.7360247 699.105105,36.792 C701.793119,31.8479753 703.7131,27.672017 704.865105,24.264 C706.017111,20.855983 705.969112,18.6720048 704.721105,17.712 L704.865105,17.712 C699.87308,17.0399966 695.121128,16.5120019 690.609105,16.128 C686.097083,15.7439981 682.065123,15.7919976 678.513105,16.272 C674.961088,16.7520024 672.009117,17.7839921 669.657105,19.368 C667.305094,20.9520079 665.841108,23.3759837 665.265105,26.64 C665.649107,22.1279774 667.42509,18.5520132 670.593105,15.912 C673.761121,13.2719868 677.817081,11.256007 682.761105,9.864 C687.70513,8.47199304 693.273074,7.58400192 699.465105,7.2 C705.657136,6.81599808 712.017073,6.64799976 718.545105,6.696 C725.073138,6.74400024 731.505074,6.83999928 737.841105,6.984 C744.177137,7.12800072 749.961079,7.0800012 755.193105,6.84 C760.425132,6.5999988 764.841087,5.97600504 768.441105,4.968 C772.041123,3.95999496 774.3691,2.30401152 775.425105,0 L775.425105,0 Z M752.817105,47.232 C756.465124,47.232 759.489093,47.5919964 761.889105,48.312 C764.289117,49.0320036 766.209098,49.8239957 767.649105,50.688 C769.377114,51.7440053 770.673101,52.8959938 771.537105,54.144 C763.665066,65.3760562 756.993133,75.4079558 751.521105,84.24 C749.217094,87.9840187 747.009116,91.6799818 744.897105,95.328 C742.785095,98.9760182 741.081112,102.191986 739.785105,104.976 C738.489099,107.760014 737.697107,110.015991 737.409105,111.744 C737.121104,113.472009 737.5531,114.336 738.705105,114.336 C740.721115,114.336 742.977093,113.400009 745.473105,111.528 C747.969118,109.655991 750.441093,107.304014 752.889105,104.472 C755.337118,101.639986 757.617095,98.5440168 759.729105,95.184 C761.841116,91.8239832 763.497099,88.6560149 764.697105,85.68 C765.897111,82.7039851 766.497105,80.112011 766.497105,77.904 C766.497105,75.695989 765.633114,74.3520024 763.905105,73.872 L778.881105,73.872 C774.465083,82.6080437 769.713131,90.3359664 764.625105,97.056 C762.417094,99.9360144 760.089118,102.767986 757.641105,105.552 C755.193093,108.336014 752.601119,110.807989 749.865105,112.968 C747.129092,115.128011 744.32112,116.855994 741.441105,118.152 C738.561091,119.448006 735.68112,120.096 732.801105,120.096 C729.441089,120.096 727.473108,118.920012 726.897105,116.568 C726.321102,114.215988 726.6091,111.120019 727.761105,107.28 C724.401089,111.024019 720.945123,114.095988 717.393105,116.496 C713.841088,118.896012 710.289123,120.096 706.737105,120.096 C703.56909,120.096 701.457111,118.704014 700.401105,115.92 C699.3451,113.135986 699.081103,109.560022 699.609105,105.192 C700.137108,100.823978 701.337096,95.9280271 703.209105,90.504 C705.081115,85.0799729 707.409091,79.7280264 710.193105,74.448 C712.977119,69.1679736 716.121088,64.2480228 719.625105,59.688 C723.129123,55.1279772 726.705087,51.5040134 730.353105,48.816 C734.001124,46.1279866 737.625087,44.7120007 741.225105,44.568 C744.825123,44.4239993 748.16109,46.0799827 751.233105,49.536 C752.481112,51.0720077 753.249104,53.135987 753.537105,55.728 C754.593111,53.135987 755.121105,51.0720077 755.121105,49.536 C755.121105,47.9999923 754.353113,47.232 752.817105,47.232 L752.817105,47.232 Z M711.345105,115.056 C713.361115,115.056 715.713092,113.832012 718.401105,111.384 C721.089119,108.935988 723.777092,105.864018 726.465105,102.168 C729.153119,98.4719815 731.697093,94.4400218 734.097105,90.072 C736.497117,85.7039782 738.417098,81.6000192 739.857105,77.76 C741.297113,73.9199808 742.113104,70.6080139 742.305105,67.824 C742.497106,65.0399861 741.729114,63.4080024 740.001105,62.928 L749.073105,62.928 C749.553108,61.0079904 749.721106,59.352007 749.577105,57.96 C749.433105,56.567993 748.92911,55.6320024 748.065105,55.152 C745.761094,53.9999942 742.977122,54.6719875 739.713105,57.168 C736.449089,59.6640125 733.137122,63.1439777 729.777105,67.608 C726.417089,72.0720223 723.177121,77.0399726 720.057105,82.512 C716.93709,87.9840274 714.417115,93.1439758 712.497105,97.992 C710.577096,102.840024 709.401108,106.895984 708.969105,110.16 C708.537103,113.424016 709.329095,115.056 711.345105,115.056 L711.345105,115.056 Z M832.305105,8.64 C829.809093,10.5600096 826.857122,13.6079791 823.449105,17.784 C820.041088,21.9600209 816.369125,26.7839726 812.433105,32.256 C814.545116,32.063999 816.681095,31.9200005 818.841105,31.824 C821.001116,31.7279995 823.185094,31.6320005 825.393105,31.536 C827.313115,27.8879818 828.7771,24.9360113 829.785105,22.68 C830.79311,20.4239887 831.057108,19.0560024 830.577105,18.576 C832.305114,17.4239942 834.441093,16.2720058 836.985105,15.12 C839.529118,13.9679942 842.169092,12.9120048 844.905105,11.952 C847.641119,10.9919952 850.377092,10.2000031 853.113105,9.576 C855.849119,8.95199688 858.321094,8.64 860.529105,8.64 C858.129093,10.5600096 855.297122,13.4639806 852.033105,17.352 C848.769089,21.2400194 845.313124,25.7279746 841.665105,30.816 C848.001137,30.5279986 853.449083,30.1200026 858.009105,29.592 C862.569128,29.0639974 865.4251,28.1280067 866.577105,26.784 C864.945097,29.5680139 863.001117,31.8479911 860.745105,33.624 C858.489094,35.4000089 855.993119,36.8159947 853.257105,37.872 C850.521092,38.9280053 847.593121,39.6719978 844.473105,40.104 C841.35309,40.5360022 838.113122,40.752 834.753105,40.752 C830.529084,46.8960307 826.329126,53.2559671 822.153105,59.832 C817.977084,66.4080329 814.137123,72.599971 810.633105,78.408 C807.129088,84.216029 804.129118,89.3279779 801.633105,93.744 C799.137093,98.1600221 797.40911,101.279991 796.449105,103.104 C794.817097,106.464017 793.737108,109.17599 793.209105,111.24 C792.681103,113.30401 793.089099,114.336 794.433105,114.336 C796.449115,114.336 798.705093,113.400009 801.201105,111.528 C803.697118,109.655991 806.193093,107.304014 808.689105,104.472 C811.185118,101.639986 813.465095,98.5440168 815.529105,95.184 C817.593116,91.8239832 819.249099,88.6560149 820.497105,85.68 C821.745112,82.7039851 822.369105,80.112011 822.369105,77.904 C822.369105,75.695989 821.505114,74.3520024 819.777105,73.872 L834.753105,73.872 C830.337083,82.6080437 825.585131,90.3359664 820.497105,97.056 C818.289094,99.9360144 815.961118,102.767986 813.513105,105.552 C811.065093,108.336014 808.473119,110.807989 805.737105,112.968 C803.001092,115.128011 800.19312,116.855994 797.313105,118.152 C794.433091,119.448006 791.55312,120.096 788.673105,120.096 C786.945097,120.096 785.62511,119.760003 784.713105,119.088 C783.801101,118.415997 783.225107,117.480006 782.985105,116.28 C782.745104,115.079994 782.793104,113.640008 783.129105,111.96 C783.465107,110.279992 783.921102,108.384011 784.497105,106.272 C780.849087,110.20802 777.009126,113.495987 772.977105,116.136 C768.945085,118.776013 764.769127,120.096 760.449105,120.096 C758.241094,120.096 756.729109,119.616005 755.913105,118.656 C755.097101,117.695995 754.713105,116.328009 754.761105,114.552 C754.809106,112.775991 755.169102,110.640012 755.841105,108.144 C756.513109,105.647988 757.329101,102.912015 758.289105,99.936 C759.15311,97.2479866 760.905092,93.4560245 763.545105,88.56 C766.185119,83.6639755 769.233088,78.312029 772.689105,72.504 C776.145123,66.695971 779.745087,60.7440305 783.489105,54.648 C787.233124,48.5519695 790.59309,42.9600254 793.569105,37.872 C790.209089,37.872 787.209119,38.1119976 784.569105,38.592 C781.929092,39.0720024 779.745114,39.9839933 778.017105,41.328 C779.361112,39.5999914 781.56909,38.1840055 784.641105,37.08 C787.713121,35.9759945 791.361084,35.0400038 795.585105,34.272 C798.081118,29.9519784 799.977099,26.3760142 801.273105,23.544 C802.569112,20.7119858 802.929108,19.0560024 802.353105,18.576 C804.081114,17.4239942 806.217093,16.2720058 808.761105,15.12 C811.305118,13.9679942 813.945092,12.9120048 816.681105,11.952 C819.417119,10.9919952 822.153092,10.2000031 824.889105,9.576 C827.625119,8.95199688 830.097094,8.64 832.305105,8.64 L832.305105,8.64 Z M800.049105,73.872 C803.409122,68.2079717 806.889087,62.4480293 810.489105,56.592 C814.089123,50.7359707 817.42509,45.2160259 820.497105,40.032 L807.825105,38.736 C803.505084,44.9760312 799.209127,51.4799662 794.937105,58.248 C790.665084,65.0160338 786.705124,71.39997 783.057105,77.4 C779.409087,83.40003 776.265119,88.703977 773.625105,93.312 C770.985092,97.920023 769.18511,101.18399 768.225105,103.104 C766.593097,106.464017 765.513108,109.17599 764.985105,111.24 C764.457103,113.30401 764.865099,114.336 766.209105,114.336 C768.225115,114.336 770.481093,113.400009 772.977105,111.528 C775.473118,109.655991 777.969093,107.304014 780.465105,104.472 C782.961118,101.639986 785.241095,98.5440168 787.305105,95.184 C789.369116,91.8239832 791.025099,88.6560149 792.273105,85.68 C793.521112,82.7039851 794.145105,80.112011 794.145105,77.904 C794.145105,75.695989 793.281114,74.3520024 791.553105,73.872 L800.049105,73.872 Z M861.825105,101.52 C859.713095,101.52 857.985112,101.136004 856.641105,100.368 C854.049092,103.152014 851.385119,105.743988 848.649105,108.144 C845.913092,110.544012 843.177119,112.631991 840.441105,114.408 C837.705092,116.184009 835.017119,117.575995 832.377105,118.584 C829.737092,119.592005 827.265117,120.096 824.961105,120.096 C821.313087,120.096 818.793112,118.824013 817.401105,116.28 C816.009098,113.735987 815.481104,110.42402 815.817105,106.344 C816.153107,102.26398 817.233096,97.6800254 819.057105,92.592 C820.881114,87.5039746 823.161092,82.4400252 825.897105,77.4 C828.633119,72.3599748 831.729088,67.5840226 835.185105,63.072 C838.641123,58.5599774 842.169087,54.8640144 845.769105,51.984 C849.369123,49.1039856 852.897088,47.2560041 856.353105,46.44 C859.809123,45.6239959 862.977091,46.3679885 865.857105,48.672 C870.081126,47.8079957 873.345094,47.8319954 875.649105,48.744 C877.953117,49.6560046 879.441102,51.2399887 880.113105,53.496 C880.785109,55.7520113 880.737109,58.5359834 879.969105,61.848 C879.201102,65.1600166 877.905114,68.711981 876.081105,72.504 C874.257096,76.296019 871.977119,80.2319796 869.241105,84.312 C866.505092,88.3920204 863.553121,92.3039813 860.385105,96.048 C860.769107,97.2000058 861.873096,97.776 863.697105,97.776 C865.809116,97.776 868.041094,96.7680101 870.393105,94.752 C872.745117,92.7359899 874.761097,90.3840134 876.441105,87.696 C878.121114,85.0079866 879.153103,82.3440132 879.537105,79.704 C879.921107,77.0639868 879.153115,75.1200062 877.233105,73.872 L892.209105,73.872 C889.329091,79.0560259 886.257122,83.6639798 882.993105,87.696 C881.553098,89.4240086 880.017114,91.1279916 878.385105,92.808 C876.753097,94.4880084 875.049114,95.9759935 873.273105,97.272 C871.497096,98.5680065 869.649115,99.5999962 867.729105,100.368 C865.809096,101.136004 863.841115,101.52 861.825105,101.52 L861.825105,101.52 Z M855.777105,76.032 C856.545109,73.3439866 857.5051,70.800012 858.657105,68.4 C859.809111,65.999988 860.9611,63.8160098 862.113105,61.848 C863.265111,59.8799902 864.3691,58.1760072 865.425105,56.736 C866.481111,55.2959928 867.297102,54.1920038 867.873105,53.424 C866.145097,53.424 864.081117,54.2879914 861.681105,56.016 C859.281093,57.7440086 856.761119,60.0719854 854.121105,63 C851.481092,65.9280146 848.769119,69.2399815 845.985105,72.936 C843.201091,76.6320185 840.585118,80.4239806 838.137105,84.312 C835.689093,88.2000194 833.505115,91.9919815 831.585105,95.688 C829.665096,99.3840185 828.20111,102.695985 827.193105,105.624 C826.1851,108.552015 825.753105,110.903991 825.897105,112.68 C826.041106,114.456009 826.929097,115.344 828.561105,115.344 C830.577115,115.344 832.641095,114.792006 834.753105,113.688 C836.865116,112.583994 838.977095,111.096009 841.089105,109.224 C843.201116,107.351991 845.241096,105.120013 847.209105,102.528 C849.177115,99.935987 851.073096,97.2000144 852.897105,94.32 C852.513103,92.3999904 852.441104,90.3840106 852.681105,88.272 C852.921107,86.1599894 853.281103,84.1920091 853.761105,82.368 C854.241108,80.2559894 854.913101,78.1440106 855.777105,76.032 L855.777105,76.032 Z M918.705105,101.52 C916.593095,101.52 914.865112,101.136004 913.521105,100.368 C910.929092,103.152014 908.265119,105.743988 905.529105,108.144 C902.793092,110.544012 900.057119,112.631991 897.321105,114.408 C894.585092,116.184009 891.897119,117.575995 889.257105,118.584 C886.617092,119.592005 884.145117,120.096 881.841105,120.096 C878.193087,120.096 875.673112,118.824013 874.281105,116.28 C872.889098,113.735987 872.361104,110.42402 872.697105,106.344 C873.033107,102.26398 874.113096,97.6800254 875.937105,92.592 C877.761114,87.5039746 880.041092,82.4400252 882.777105,77.4 C885.513119,72.3599748 888.609088,67.5840226 892.065105,63.072 C895.521123,58.5599774 899.049087,54.8640144 902.649105,51.984 C906.249123,49.1039856 909.777088,47.2560041 913.233105,46.44 C916.689123,45.6239959 919.857091,46.3679885 922.737105,48.672 C926.961126,47.8079957 930.225094,47.8319954 932.529105,48.744 C934.833117,49.6560046 936.321102,51.2399887 936.993105,53.496 C937.665109,55.7520113 937.617109,58.5359834 936.849105,61.848 C936.081102,65.1600166 934.785114,68.711981 932.961105,72.504 C931.137096,76.296019 928.857119,80.2319796 926.121105,84.312 C923.385092,88.3920204 920.433121,92.3039813 917.265105,96.048 C917.649107,97.2000058 918.753096,97.776 920.577105,97.776 C922.689116,97.776 924.921094,96.7680101 927.273105,94.752 C929.625117,92.7359899 931.641097,90.3840134 933.321105,87.696 C935.001114,85.0079866 936.033103,82.3440132 936.417105,79.704 C936.801107,77.0639868 936.033115,75.1200062 934.113105,73.872 L949.089105,73.872 C946.209091,79.0560259 943.137122,83.6639798 939.873105,87.696 C938.433098,89.4240086 936.897114,91.1279916 935.265105,92.808 C933.633097,94.4880084 931.929114,95.9759935 930.153105,97.272 C928.377096,98.5680065 926.529115,99.5999962 924.609105,100.368 C922.689096,101.136004 920.721115,101.52 918.705105,101.52 L918.705105,101.52 Z M912.657105,76.032 C913.425109,73.3439866 914.3851,70.800012 915.537105,68.4 C916.689111,65.999988 917.8411,63.8160098 918.993105,61.848 C920.145111,59.8799902 921.2491,58.1760072 922.305105,56.736 C923.361111,55.2959928 924.177102,54.1920038 924.753105,53.424 C923.025097,53.424 920.961117,54.2879914 918.561105,56.016 C916.161093,57.7440086 913.641119,60.0719854 911.001105,63 C908.361092,65.9280146 905.649119,69.2399815 902.865105,72.936 C900.081091,76.6320185 897.465118,80.4239806 895.017105,84.312 C892.569093,88.2000194 890.385115,91.9919815 888.465105,95.688 C886.545096,99.3840185 885.08111,102.695985 884.073105,105.624 C883.0651,108.552015 882.633105,110.903991 882.777105,112.68 C882.921106,114.456009 883.809097,115.344 885.441105,115.344 C887.457115,115.344 889.521095,114.792006 891.633105,113.688 C893.745116,112.583994 895.857095,111.096009 897.969105,109.224 C900.081116,107.351991 902.121096,105.120013 904.089105,102.528 C906.057115,99.935987 907.953096,97.2000144 909.777105,94.32 C909.393103,92.3999904 909.321104,90.3840106 909.561105,88.272 C909.801107,86.1599894 910.161103,84.1920091 910.641105,82.368 C911.121108,80.2559894 911.793101,78.1440106 912.657105,76.032 L912.657105,76.032 Z M959.169105,58.464 C961.473117,56.063988 963.921092,53.9520091 966.513105,52.128 C968.721116,50.4959918 971.289091,49.0560062 974.217105,47.808 C977.14512,46.5599938 980.289089,45.9839995 983.649105,46.08 C982.785101,46.3680014 981.969109,47.615989 981.201105,49.824 C980.433102,52.032011 979.665109,54.8879825 978.897105,58.392 C978.129102,61.8960175 977.26511,65.8559779 976.305105,70.272 C975.345101,74.6880221 974.217112,79.1519774 972.921105,83.664 C971.625099,88.1760226 970.089114,92.6159782 968.313105,96.984 C966.537096,101.352022 964.449117,105.215983 962.049105,108.576 C965.505123,105.695986 968.81709,102.408018 971.985105,98.712 C975.153121,95.0159815 977.769095,91.4400173 979.833105,87.984 C981.897116,84.5279827 983.241102,81.4800132 983.865105,78.84 C984.489108,76.1999868 983.985114,74.4480043 982.353105,73.584 L997.329105,73.584 C994.641092,78.0960226 991.377125,82.8239753 987.537105,87.768 C983.697086,92.7120247 979.593127,97.3439784 975.225105,101.664 C970.857084,105.984022 966.321129,109.727984 961.617105,112.896 C956.913082,116.064016 952.305128,118.223994 947.793105,119.376 C945.873096,119.856002 943.953115,120.096 942.033105,120.096 C937.809084,120.096 934.785114,118.608015 932.961105,115.632 C931.137096,112.655985 930.249105,109.056021 930.297105,104.832 C930.345106,100.607979 931.185097,96.2160228 932.817105,91.656 C934.449114,87.0959772 936.585092,83.2320158 939.225105,80.064 C941.865119,76.8959842 944.817089,74.8800043 948.081105,74.016 C951.345122,73.1519957 954.657089,74.2559846 958.017105,77.328 C956.769099,77.328 955.233114,78.2879904 953.409105,80.208 C951.585096,82.1280096 949.785114,84.5519854 948.009105,87.48 C946.233096,90.4080146 944.601113,93.575983 943.113105,96.984 C941.625098,100.392017 940.521109,103.559985 939.801105,106.488 C939.081102,109.416015 938.889104,111.86399 939.225105,113.832 C939.561107,115.80001 940.689096,116.784 942.609105,116.784 C944.529115,116.784 946.425096,115.560012 948.297105,113.112 C950.169115,110.663988 951.921097,107.544019 953.553105,103.752 C955.185114,99.959981 956.625099,95.760023 957.873105,91.152 C959.121112,86.543977 960.033102,82.0800216 960.609105,77.76 C961.185108,73.4399784 961.377106,69.5520173 961.185105,66.096 C960.993104,62.6399827 960.321111,60.0960082 959.169105,58.464 L959.169105,58.464 Z"/></g></svg>